<?xml version="1.0" encoding="UTF-8"?>
<svg width="21px" height="20px" viewBox="0 0 21 20" version="1.1" xmlns="http://www.w3.org/2000/svg" xmlns:xlink="http://www.w3.org/1999/xlink">
    <!-- Generator: sketchtool 51.3 (57544) - http://www.bohemiancoding.com/sketch -->
    <title>37387B51-7991-4EBA-BAF6-F91C17E62A2E</title>
    <desc>Created with sketchtool.</desc>
    <defs>
        <path d="M17,2 L14.414,2 L12.707,0.293 C12.52,0.105 12.265,0 12,0 L8,0 C7.735,0 7.48,0.105 7.293,0.293 L5.586,2 L3,2 C2.448,2 2,2.448 2,3 L2,19 C2,19.552 2.448,20 3,20 L17,20 C17.552,20 18,19.552 18,19 L18,3 C18,2.448 17.552,2 17,2 L17,2 Z M16,18 L4,18 L4,4 L5.586,4 L7.293,5.707 C7.48,5.895 7.735,6 8,6 L12,6 C12.265,6 12.52,5.895 12.707,5.707 L14.414,4 L16,4 L16,18 Z M8.414,2 L11.586,2 L12.586,3 L11.586,4 L8.414,4 L7.414,3 L8.414,2 Z M12.293,9.293 L9,12.586 L7.707,11.293 C7.316,10.902 6.684,10.902 6.293,11.293 C5.902,11.684 5.902,12.316 6.293,12.707 L8.293,14.707 C8.488,14.902 8.744,15 9,15 C9.256,15 9.512,14.902 9.707,14.707 L13.707,10.707 C14.098,10.316 14.098,9.684 13.707,9.293 C13.316,8.902 12.684,8.902 12.293,9.293" id="path-1"></path>
    </defs>
    <g id="Asset-Artboard-Page" stroke="none" stroke-width="1" fill="none" fill-rule="evenodd">
        <g id="icon/Minor/Mono/Export-Polaris-icon/Major/Mono/Checklist" transform="translate(0.790576, 0.000000)">
            <mask id="mask-2" fill="white">
                <use xlink:href="#path-1"></use>
            </mask>
            <use id="Icon" fill="#442B2D" xlink:href="#path-1"></use>
        </g>
    </g>
</svg>