<?xml version="1.0" encoding="UTF-8"?>
<svg width="24px" height="20px" viewBox="0 0 24 20" version="1.1" xmlns="http://www.w3.org/2000/svg" xmlns:xlink="http://www.w3.org/1999/xlink">
    <!-- Generator: sketchtool 51.3 (57544) - http://www.bohemiancoding.com/sketch -->
    <title>A944D552-EAB0-471D-8D56-5E6E5AA6E459</title>
    <desc>Created with sketchtool.</desc>
    <defs></defs>
    <g id="RETAILERS" stroke="none" stroke-width="1" fill="none" fill-rule="evenodd">
        <g id="Cart" transform="translate(-1391.000000, -11.000000)" fill="#000000" fill-rule="nonzero">
            <g id="header">
                <g id="Shopping-cart" transform="translate(1391.000000, 11.000000)">
                    <path d="M9.15000027,15.0000556 C7.7714955,15.0092459 6.66057517,16.1325707 6.6666918,17.5110926 C6.67280844,18.8896145 7.79365344,20.0030368 9.17218549,19.9999938 C10.5507175,19.9969508 11.666636,18.878591 11.6666667,17.5000555 C11.6666815,16.8341165 11.4010028,16.1956929 10.928551,15.7263699 C10.4560992,15.2570469 9.81592443,14.995616 9.15000027,15.0000556 Z M9.15000027,18.3333888 C8.68976302,18.3333888 8.31666702,17.9602928 8.31666702,17.5000555 C8.31666702,17.0398183 8.68976302,16.6667222 9.15000027,16.6667222 C9.61023751,16.6667222 9.98333351,17.0398183 9.98333351,17.5000555 C9.98333351,17.9602928 9.61023751,18.3333888 9.15000027,18.3333888 Z" id="Shape"></path>
                    <path d="M15.8166669,15.0000556 C14.4381622,15.0092459 13.3272418,16.1325707 13.3333585,17.5110926 C13.3394751,18.8896145 14.4603201,20.0030368 15.8388522,19.9999938 C17.2173842,19.9969508 18.3333027,18.878591 18.3333333,17.5000555 C18.3333481,16.8341165 18.0676694,16.1956929 17.5952177,15.7263699 C17.1227659,15.2570469 16.4825911,14.995616 15.8166669,15.0000556 Z M15.8166669,18.3333888 C15.3564297,18.3333888 14.9833337,17.9602928 14.9833337,17.5000555 C14.9833337,17.0398183 15.3564297,16.6667222 15.8166669,16.6667222 C16.2769042,16.6667222 16.6500002,17.0398183 16.6500002,17.5000555 C16.6500002,17.9602928 16.2769042,18.3333888 15.8166669,18.3333888 Z" id="Shape"></path>
                    <path d="M4.4782814,2.38347458 L4.01558074,0 L0.82625118,0 C0.369925254,0 0,0.355705972 0,0.794491525 C0,1.23327708 0.369925254,1.58898305 0.82625118,1.58898305 L2.64400378,1.58898305 L5.23843248,15 L18.4584514,15 C18.9147773,15 19.2847025,14.644294 19.2847025,14.2055085 C19.2847025,13.7667229 18.9147773,13.4110169 18.4584514,13.4110169 L6.61000944,13.4110169 L6.32908404,11.9173729 L20.2266289,11.9173729 C21.0399571,11.9287435 21.7409368,11.3692942 21.8791313,10.5985169 L23.3333333,2.38347458 L4.4782814,2.38347458 Z M20.2266289,10.3283898 L6.01510859,10.3283898 L4.85835694,3.97245763 L21.3833805,3.97245763 L20.2266289,10.3283898 Z" id="Shape"></path>
                </g>
            </g>
        </g>
    </g>
</svg>
