<?xml version="1.0" encoding="UTF-8"?>
<svg width="17px" height="17px" viewBox="0 0 17 17" version="1.1" xmlns="http://www.w3.org/2000/svg" xmlns:xlink="http://www.w3.org/1999/xlink">
    <!-- Generator: Sketch 51.3 (57544) - http://www.bohemiancoding.com/sketch -->
    <title>side-arrow</title>
    <desc>Created with Sketch.</desc>
    <defs></defs>
    <g id="Admin-POV" stroke="none" stroke-width="1" fill="none" fill-rule="evenodd">
        <g id="admin/mktplace-copy" transform="translate(-230.000000, -53.000000)">
            <g id="side-arrow" transform="translate(231.000000, 54.000000)">
                <circle id="Oval-3" stroke="#44566C" fill="#FFFFFF" cx="7.5" cy="7.5" r="7.5"></circle>
                <path d="M6.69208995,3.27324875 C7.05244995,3.62498575 10.57328,7.32081975 10.57328,7.32081975 C10.76553,7.50961975 10.86208,7.75531975 10.86208,8.00101975 C10.86208,8.24671975 10.76553,8.49241975 10.57328,8.67949975 C10.57328,8.67949975 7.05244995,12.3770598 6.69208995,12.7270698 C6.33172995,13.0787998 5.68343095,13.1028998 5.29979495,12.7270698 C4.91529735,12.3529198 4.88512395,11.8296198 5.29979495,11.3701198 L8.53008995,8.00101975 L5.29979495,4.63191975 C4.88512395,4.17241975 4.91529735,3.64826275 5.29979495,3.27324875 C5.68343095,2.89737175 6.33172995,2.92064825 6.69208995,3.27324875 Z" id="arrow" fill="#44566C" fill-rule="nonzero"></path>
            </g>
        </g>
    </g>
</svg>