<svg width="20" height="20" viewBox="0 0 20 20" fill="none" xmlns="http://www.w3.org/2000/svg">
<path d="M18.9542 8.82738C19.6785 8.82738 19.9808 7.89691 19.3925 7.46801L10.4417 0.957068C10.3139 0.863416 10.1596 0.812927 10.0011 0.812927C9.84266 0.812927 9.68832 0.863416 9.5605 0.957068L0.609716 7.46801C0.0214344 7.89457 0.323778 8.82738 1.05034 8.82738H2.50112V17.593H0.813622C0.710497 17.593 0.626122 17.6774 0.626122 17.7805V18.9993C0.626122 19.1024 0.710497 19.1868 0.813622 19.1868H19.1886C19.2917 19.1868 19.3761 19.1024 19.3761 18.9993V17.7805C19.3761 17.6774 19.2917 17.593 19.1886 17.593H17.5011V8.82738H18.9542ZM10.0011 2.60941L16.355 7.23129H3.64721L10.0011 2.60941ZM4.18862 8.82738H6.93081V17.593H4.18862V8.82738ZM8.61831 8.82738H11.3605V17.593H8.61831V8.82738ZM15.8136 17.593H13.048V8.82738H15.8136V17.593Z" fill="black"/>
</svg>
