<?xml version="1.0" encoding="UTF-8"?>
<svg width="29px" height="22px" viewBox="0 0 29 22" version="1.1" xmlns="http://www.w3.org/2000/svg" xmlns:xlink="http://www.w3.org/1999/xlink">
    <!-- Generator: sketchtool 51.3 (57544) - http://www.bohemiancoding.com/sketch -->
    <title>67ACF3A5-BE32-4C1C-A8EB-E8705FEBCEB5</title>
    <desc>Created with sketchtool.</desc>
    <defs></defs>
    <g id="RETAILER-PROFILE" stroke="none" stroke-width="1" fill="none" fill-rule="evenodd" fill-opacity="0.95">
        <g id="edit-retailer-profile" transform="translate(-809.000000, -317.000000)" fill="#FFFFFF" fill-rule="nonzero">
            <g id="Group-2" transform="translate(125.000000, 168.000000)">
                <g id="noun_Camera_2053900-2" transform="translate(684.000000, 149.000000)">
                    <g id="Group">
                        <rect id="Rectangle-path" x="21.1760417" y="7.11944444" width="3.86666667" height="2.16944444"></rect>
                        <path d="M20.5114583,3.3 L18.6385417,0.183333333 L10.3614583,0.183333333 L8.48854167,3.3 L0.151041667,3.3 L0.151041667,21.8166667 L28.8489583,21.8166667 L28.8489583,3.3 L20.5114583,3.3 Z M26.7041667,19.6472222 L2.29583333,19.6472222 L2.29583333,5.46944444 L9.72708333,5.46944444 L11.6,2.35277778 L17.4604167,2.35277778 L19.3333333,5.46944444 L26.7645833,5.46944444 L26.7645833,19.6472222 L26.7041667,19.6472222 Z" id="Shape"></path>
                        <path d="M14.5,6.38611111 C11.41875,6.38611111 8.91145833,8.92222222 8.91145833,12.0388889 C8.91145833,15.1555556 11.41875,17.6916667 14.5,17.6916667 C17.58125,17.6916667 20.0885417,15.1555556 20.0885417,12.0388889 C20.0885417,8.92222222 17.58125,6.38611111 14.5,6.38611111 Z M14.5,15.5222222 C12.596875,15.5222222 11.05625,13.9638889 11.05625,12.0388889 C11.05625,10.1138889 12.596875,8.525 14.5,8.525 C16.403125,8.525 17.94375,10.0833333 17.94375,12.0083333 C17.94375,13.9333333 16.403125,15.5222222 14.5,15.5222222 Z" id="Shape"></path>
                    </g>
                </g>
            </g>
        </g>
    </g>
</svg>