<svg width="41" height="44" viewBox="0 0 41 44" fill="none" xmlns="http://www.w3.org/2000/svg">
<path d="M15.9375 5.85938C15.8344 5.85938 15.75 5.94375 15.75 6.04688V7.17188C15.75 7.275 15.8344 7.35938 15.9375 7.35938H24.9375C25.0406 7.35938 25.125 7.275 25.125 7.17188V6.04688C25.125 5.94375 25.0406 5.85938 24.9375 5.85938H15.9375ZM20.25 9.23438H15.9375C15.8344 9.23438 15.75 9.31875 15.75 9.42188V10.5469C15.75 10.65 15.8344 10.7344 15.9375 10.7344H20.25C20.3531 10.7344 20.4375 10.65 20.4375 10.5469V9.42188C20.4375 9.31875 20.3531 9.23438 20.25 9.23438ZM19.125 19.9688H13.875V3.46875H27V10.9688C27 11.0719 27.0844 11.1562 27.1875 11.1562H28.5C28.6031 11.1562 28.6875 11.0719 28.6875 10.9688V2.53125C28.6875 2.11641 28.3523 1.78125 27.9375 1.78125H12.9375C12.5227 1.78125 12.1875 2.11641 12.1875 2.53125V20.9062C12.1875 21.3211 12.5227 21.6562 12.9375 21.6562H19.125C19.2281 21.6562 19.3125 21.5719 19.3125 21.4688V20.1562C19.3125 20.0531 19.2281 19.9688 19.125 19.9688ZM29.4375 17.9062H26.0625V17.0484C27.1477 16.725 27.9375 15.7219 27.9375 14.5312C27.9375 13.0805 26.7633 11.9062 25.3125 11.9062C23.8617 11.9062 22.6875 13.0805 22.6875 14.5312C22.6875 15.7195 23.4773 16.725 24.5625 17.0484V17.9062H21.1875C20.9812 17.9062 20.8125 18.075 20.8125 18.2812V21.8438C20.8125 22.05 20.9812 22.2188 21.1875 22.2188H29.4375C29.6437 22.2188 29.8125 22.05 29.8125 21.8438V18.2812C29.8125 18.075 29.6437 17.9062 29.4375 17.9062ZM24.1406 14.5312C24.1406 13.8844 24.6656 13.3594 25.3125 13.3594C25.9594 13.3594 26.4844 13.8844 26.4844 14.5312C26.4844 15.1781 25.9594 15.7031 25.3125 15.7031C24.6656 15.7031 24.1406 15.1781 24.1406 14.5312ZM28.3594 20.7656H22.2656V19.3594H28.3594V20.7656Z" fill="#8C8C8C"/>
<path d="M4.728 37.144C6.144 37.144 7.104 36.472 7.776 35.56L6.924 35.092C6.468 35.776 5.64 36.256 4.728 36.256C2.976 36.256 1.644 34.9 1.644 33.004C1.644 31.096 2.976 29.752 4.728 29.752C5.64 29.752 6.468 30.244 6.924 30.916L7.764 30.448C7.128 29.548 6.144 28.864 4.728 28.864C2.424 28.864 0.612 30.544 0.612 33.004C0.612 35.464 2.424 37.144 4.728 37.144ZM13.5334 37V33.016C13.5334 31.612 12.5134 31.06 11.2894 31.06C10.3414 31.06 9.59738 31.372 8.97338 32.02L9.39338 32.644C9.90938 32.092 10.4734 31.84 11.1694 31.84C12.0094 31.84 12.6334 32.284 12.6334 33.064V34.108C12.1654 33.568 11.5054 33.316 10.7134 33.316C9.72938 33.316 8.68538 33.928 8.68538 35.224C8.68538 36.484 9.72938 37.144 10.7134 37.144C11.4934 37.144 12.1534 36.868 12.6334 36.34V37H13.5334ZM11.0374 36.496C10.1974 36.496 9.60938 35.968 9.60938 35.236C9.60938 34.492 10.1974 33.964 11.0374 33.964C11.6734 33.964 12.2854 34.204 12.6334 34.684V35.776C12.2854 36.256 11.6734 36.496 11.0374 36.496ZM16.8015 37.144C17.3295 37.144 17.6535 36.988 17.8815 36.772L17.6175 36.1C17.4975 36.232 17.2575 36.34 17.0055 36.34C16.6095 36.34 16.4175 36.028 16.4175 35.596V31.996H17.5935V31.204H16.4175V29.62H15.5175V31.204H14.5575V31.996H15.5175V35.788C15.5175 36.652 15.9495 37.144 16.8015 37.144ZM23.3888 37V33.016C23.3888 31.612 22.3688 31.06 21.1448 31.06C20.1968 31.06 19.4528 31.372 18.8288 32.02L19.2488 32.644C19.7648 32.092 20.3288 31.84 21.0248 31.84C21.8648 31.84 22.4888 32.284 22.4888 33.064V34.108C22.0208 33.568 21.3608 33.316 20.5688 33.316C19.5848 33.316 18.5408 33.928 18.5408 35.224C18.5408 36.484 19.5848 37.144 20.5688 37.144C21.3488 37.144 22.0088 36.868 22.4888 36.34V37H23.3888ZM20.8928 36.496C20.0528 36.496 19.4648 35.968 19.4648 35.236C19.4648 34.492 20.0528 33.964 20.8928 33.964C21.5288 33.964 22.1408 34.204 22.4888 34.684V35.776C22.1408 36.256 21.5288 36.496 20.8928 36.496ZM26.093 37V28.996H25.193V37H26.093ZM30.4203 37.144C32.1843 37.144 33.2883 35.776 33.2883 34.096C33.2883 32.416 32.1843 31.06 30.4203 31.06C28.6563 31.06 27.5523 32.416 27.5523 34.096C27.5523 35.776 28.6563 37.144 30.4203 37.144ZM30.4203 36.34C29.1843 36.34 28.4883 35.284 28.4883 34.096C28.4883 32.92 29.1843 31.864 30.4203 31.864C31.6563 31.864 32.3403 32.92 32.3403 34.096C32.3403 35.284 31.6563 36.34 30.4203 36.34ZM37.0835 39.352C38.4995 39.352 39.8435 38.752 39.8435 36.832V31.204H38.9435V32.08C38.4755 31.444 37.7795 31.06 36.9995 31.06C35.4755 31.06 34.4195 32.212 34.4195 34.072C34.4195 35.944 35.4875 37.072 36.9995 37.072C37.8155 37.072 38.5235 36.628 38.9435 36.04V36.868C38.9435 38.14 38.0435 38.608 37.0835 38.608C36.2555 38.608 35.6795 38.392 35.1995 37.816L34.7435 38.488C35.4275 39.16 36.0995 39.352 37.0835 39.352ZM37.2155 36.28C36.0515 36.28 35.3555 35.344 35.3555 34.072C35.3555 32.788 36.0515 31.864 37.2155 31.864C37.9355 31.864 38.6315 32.296 38.9435 32.8V35.332C38.6315 35.836 37.9355 36.28 37.2155 36.28Z" fill="#8C8C8C"/>
</svg>
