<svg width="64" height="64" viewBox="0 0 64 64" fill="none" xmlns="http://www.w3.org/2000/svg">
<path d="M32 0C14.3286 0 0 14.3286 0 32C0 49.6714 14.3286 64 32 64C49.6714 64 64 49.6714 64 32C64 14.3286 49.6714 0 32 0ZM43.8143 44.1571L39.1 44.1357L32 35.6714L24.9071 44.1286L20.1857 44.15C19.8714 44.15 19.6143 43.9 19.6143 43.5786C19.6143 43.4429 19.6643 43.3143 19.75 43.2071L29.0429 32.1357L19.75 21.0714C19.6637 20.9667 19.6158 20.8357 19.6143 20.7C19.6143 20.3857 19.8714 20.1286 20.1857 20.1286L24.9071 20.15L32 28.6143L39.0929 20.1571L43.8071 20.1357C44.1214 20.1357 44.3786 20.3857 44.3786 20.7071C44.3786 20.8429 44.3286 20.9714 44.2429 21.0786L34.9643 32.1429L44.25 43.2143C44.3357 43.3214 44.3857 43.45 44.3857 43.5857C44.3857 43.9 44.1286 44.1571 43.8143 44.1571Z" fill="#FF6132"/>
</svg>
