<?xml version="1.0" encoding="UTF-8"?>
<svg width="23px" height="23px" viewBox="0 0 23 23" version="1.1" xmlns="http://www.w3.org/2000/svg" xmlns:xlink="http://www.w3.org/1999/xlink">
    <!-- Generator: sketchtool 51.3 (57544) - http://www.bohemiancoding.com/sketch -->
    <title>55E8FD54-3F02-49FB-A95D-CDA9834C16FB</title>
    <desc>Created with sketchtool.</desc>
    <defs></defs>
    <g id="BRAND-PUBLIC-PROFILE-(RETAILER-MODE)" stroke="none" stroke-width="1" fill="none" fill-rule="evenodd">
        <g id="brand-profile-(public-POV)-products-Copy" transform="translate(-1123.000000, -339.000000)" fill="#9A9A9A" fill-rule="nonzero">
            <g id="facebook-icon" transform="translate(1123.000000, 339.000000)">
                <path d="M11.5966,0 C5.37997,0 0.322266,5.06657 0.322266,11.2941 C0.322266,17.5212 5.37997,22.5883 11.5966,22.5883 C17.8128,22.5883 22.871,17.5212 22.871,11.2941 C22.871,5.06657 17.8137,0 11.5966,0 Z M14.4004,11.6917 L12.5662,11.6917 C12.5662,14.6274 12.5662,18.2409 12.5662,18.2409 L9.8482,18.2409 C9.8482,18.2409 9.8482,14.6624 9.8482,11.6917 L8.55619,11.6917 L8.55619,9.37705 L9.8482,9.37705 L9.8482,7.87987 C9.8482,6.80759 10.3568,5.13208 12.5912,5.13208 L14.6053,5.13982 L14.6053,7.38672 C14.6053,7.38672 13.3814,7.38672 13.1434,7.38672 C12.9054,7.38672 12.5671,7.50591 12.5671,8.01726 L12.5671,9.3775 L14.638,9.3775 L14.4004,11.6917 Z" id="Shape"></path>
            </g>
        </g>
    </g>
</svg>