<svg width="32" height="44" viewBox="0 0 32 44" fill="none" xmlns="http://www.w3.org/2000/svg">
<path d="M26.1829 11.8364L17.1267 2.7848L16.5196 2.17777C16.3813 2.04037 16.1943 1.96326 15.9993 1.96326C15.8044 1.96326 15.6173 2.04037 15.479 2.17777L5.81572 11.8364C5.674 11.9775 5.56199 12.1457 5.48631 12.3308C5.41063 12.516 5.37282 12.7145 5.3751 12.9145C5.38447 13.7395 6.07119 14.3981 6.89619 14.3981H7.89228V22.0317H24.1063V14.3981H25.1235C25.5243 14.3981 25.9017 14.241 26.1853 13.9575C26.3249 13.8183 26.4355 13.6528 26.5108 13.4705C26.586 13.2883 26.6243 13.0929 26.6235 12.8957C26.6235 12.4973 26.4665 12.12 26.1829 11.8364ZM17.3118 20.3442H14.6868V15.5629H17.3118V20.3442ZM22.4188 12.7106V20.3442H18.8118V15.0004C18.8118 14.4825 18.3923 14.0629 17.8743 14.0629H14.1243C13.6063 14.0629 13.1868 14.4825 13.1868 15.0004V20.3442H9.57978V12.7106H7.32978L16.0017 4.04574L16.5431 4.58714L24.6712 12.7106H22.4188Z" fill="#8C8C8C"/>
<path d="M7.608 37V28.996H6.612V32.44H1.932V28.996H0.936V37H1.932V33.328H6.612V37H7.608ZM11.975 37.144C13.739 37.144 14.843 35.776 14.843 34.096C14.843 32.416 13.739 31.06 11.975 31.06C10.211 31.06 9.10697 32.416 9.10697 34.096C9.10697 35.776 10.211 37.144 11.975 37.144ZM11.975 36.34C10.739 36.34 10.043 35.284 10.043 34.096C10.043 32.92 10.739 31.864 11.975 31.864C13.211 31.864 13.895 32.92 13.895 34.096C13.895 35.284 13.211 36.34 11.975 36.34ZM24.2062 37V32.812C24.2062 31.648 23.6422 31.06 22.5862 31.06C21.7462 31.06 20.9662 31.612 20.6422 32.14C20.4742 31.54 19.9702 31.06 19.0822 31.06C18.2302 31.06 17.4502 31.672 17.2102 32.044V31.204H16.3102V37H17.2102V32.764C17.5222 32.296 18.1462 31.864 18.7342 31.864C19.4902 31.864 19.8022 32.332 19.8022 33.064V37H20.7022V32.752C21.0022 32.296 21.6382 31.864 22.2382 31.864C22.9822 31.864 23.3062 32.332 23.3062 33.064V37H24.2062ZM28.6176 37.144C29.5656 37.144 30.3456 36.832 30.9216 36.256L30.4896 35.668C30.0336 36.136 29.3616 36.4 28.7016 36.4C27.4536 36.4 26.6856 35.488 26.6136 34.396H31.3056V34.168C31.3056 32.428 30.2736 31.06 28.5216 31.06C26.8656 31.06 25.6656 32.416 25.6656 34.096C25.6656 35.908 26.9016 37.144 28.6176 37.144ZM30.4176 33.736H26.6136C26.6616 32.848 27.2736 31.804 28.5096 31.804C29.8296 31.804 30.4056 32.872 30.4176 33.736Z" fill="#8C8C8C"/>
</svg>
