<?xml version="1.0" encoding="UTF-8"?>
<svg width="24px" height="23px" viewBox="0 0 24 23" version="1.1" xmlns="http://www.w3.org/2000/svg" xmlns:xlink="http://www.w3.org/1999/xlink">
    <!-- Generator: sketchtool 51.3 (57544) - http://www.bohemiancoding.com/sketch -->
    <title>12A7FFC2-7923-4EA5-A20C-C1BE0490E003</title>
    <desc>Created with sketchtool.</desc>
    <defs></defs>
    <g id="BRAND-PUBLIC-PROFILE-(RETAILER-MODE)" stroke="none" stroke-width="1" fill="none" fill-rule="evenodd">
        <g id="brand-profile-(public-POV)-products-Copy" transform="translate(-1091.000000, -339.000000)" fill-rule="nonzero">
            <g id="instagram-icon" transform="translate(1091.000000, 339.000000)">
                <path d="M11.7816,13.5552 C13.0255,13.5552 14.0397,12.5411 14.0397,11.2942 C14.0397,10.802 13.8789,10.3475 13.6128,9.97627 C13.2027,9.4067 12.536,9.0332 11.783,9.0332 C11.0295,9.0332 10.3633,9.40624 9.9523,9.97581 C9.68525,10.347 9.52585,10.8015 9.52539,11.2937 C9.52403,12.5407 10.5372,13.5552 11.7816,13.5552 Z" id="Shape" fill="#979797"></path>
                <polygon id="Shape" fill="#979797" points="16.7102 8.52849 16.7102 6.63315 16.7102 6.35107 16.4273 6.35198 14.5361 6.3579 14.5434 8.53577"></polygon>
                <path d="M11.7822,0 C5.56551,0 0.507812,5.06657 0.507812,11.2941 C0.507812,17.5212 5.56551,22.5883 11.7822,22.5883 C17.9984,22.5883 23.0565,17.5212 23.0565,11.2941 C23.0565,5.06657 17.9993,0 11.7822,0 Z M18.1941,9.97619 L18.1941,15.2352 C18.1941,16.605 17.0824,17.7182 15.7159,17.7182 L7.84845,17.7182 C6.4815,17.7182 5.37023,16.605 5.37023,15.2352 L5.37023,9.97619 L5.37023,7.35397 C5.37023,5.98462 6.4815,4.87141 7.84845,4.87141 L15.7154,4.87141 C17.0824,4.87141 18.1941,5.98462 18.1941,7.35397 L18.1941,9.97619 Z" id="Shape" fill="#929292"></path>
                <path d="M15.2894,11.2945 C15.2894,13.2311 13.7163,14.8079 11.7822,14.8079 C9.84802,14.8079 8.27536,13.2311 8.27536,11.2945 C8.27536,10.8286 8.36801,10.3833 8.53331,9.97656 L6.61914,9.97656 L6.61914,15.2356 C6.61914,15.9152 7.17,16.4657 7.84802,16.4657 L15.715,16.4657 C16.3921,16.4657 16.9438,15.9152 16.9438,15.2356 L16.9438,9.97656 L15.0288,9.97656 C15.1954,10.3833 15.2894,10.8286 15.2894,11.2945 Z" id="Shape" fill="#979797"></path>
            </g>
        </g>
    </g>
</svg>