<svg width="16" height="16" viewBox="0 0 16 16" fill="none" xmlns="http://www.w3.org/2000/svg">
<path d="M11.0255 1.95156C11.0063 1.94193 10.9851 1.93736 10.9637 1.93831C10.9423 1.93926 10.9215 1.94569 10.9033 1.95698C10.8851 1.96828 10.8701 1.98406 10.8598 2.00281C10.8494 2.02156 10.8441 2.04265 10.8442 2.06406V3.06719C10.8442 3.15313 10.8895 3.23281 10.9614 3.27969C11.3138 3.50146 11.6398 3.76251 11.9333 4.05781C12.4442 4.57031 12.8458 5.16563 13.1255 5.82812C13.4147 6.51396 13.563 7.25098 13.5614 7.99531C13.5614 8.74688 13.4145 9.47656 13.1255 10.1625C12.8461 10.824 12.4412 11.4252 11.9333 11.9328C11.427 12.4421 10.8262 12.8476 10.1645 13.1266C9.48015 13.4172 8.75046 13.5641 8.00046 13.5641C7.25046 13.5641 6.52078 13.4172 5.8364 13.1266C5.17474 12.8476 4.57392 12.4421 4.06765 11.9328C3.55968 11.4252 3.15483 10.824 2.87546 10.1625C2.58622 9.47667 2.43796 8.73964 2.43953 7.99531C2.43953 7.24375 2.5864 6.51406 2.87546 5.82812C3.15515 5.16563 3.55671 4.57031 4.06765 4.05781C4.36453 3.76094 4.68953 3.50156 5.03953 3.27969C5.11296 3.23437 5.15671 3.15313 5.15671 3.06719V2.0625C5.15671 1.96875 5.05828 1.90938 4.97546 1.95C2.78953 3.05 1.28171 5.30156 1.25046 7.91094C1.20671 11.6422 4.25828 14.7422 7.98796 14.75C11.7223 14.7578 14.7505 11.7297 14.7505 7.99375C14.7505 5.35 13.2348 3.06094 11.0255 1.95156ZM7.50046 8.75H8.50046C8.56921 8.75 8.62546 8.69375 8.62546 8.625V1.375C8.62546 1.30625 8.56921 1.25 8.50046 1.25H7.50046C7.43171 1.25 7.37546 1.30625 7.37546 1.375V8.625C7.37546 8.69375 7.43171 8.75 7.50046 8.75Z" fill="#FF6132"/>
</svg>
