<?xml version="1.0" encoding="UTF-8"?>
<svg width="24px" height="24px" viewBox="0 0 24 24" version="1.1" xmlns="http://www.w3.org/2000/svg" xmlns:xlink="http://www.w3.org/1999/xlink">
    <!-- Generator: sketchtool 51.3 (57544) - http://www.bohemiancoding.com/sketch -->
    <title>2393B053-08C1-4427-946F-B5B6DE025DF6</title>
    <desc>Created with sketchtool.</desc>
    <defs></defs>
    <g id="RETAILERS" stroke="none" stroke-width="1" fill="none" fill-rule="evenodd">
        <g id="Retailers-Main-Page" transform="translate(-1133.000000, -26.000000)" fill="#000000" fill-rule="nonzero">
            <g id="header-logged-in">
                <g id="User" transform="translate(1133.000000, 26.000000)">
                    <path d="M11.8113465,5.14285714 C9.48162277,5.14285714 7.5930085,7.06163679 7.5930085,9.42857143 C7.5930085,11.7955061 9.48162277,13.7142857 11.8113465,13.7142857 C14.1410703,13.7142857 16.0296846,11.7955061 16.0296846,9.42857143 C16.0296846,7.06163679 14.1410703,5.14285714 11.8113465,5.14285714 Z M11.8113465,12 C10.4135123,12 9.28034372,10.8487322 9.28034372,9.42857143 C9.28034372,8.00841064 10.4135123,6.85714286 11.8113465,6.85714286 C13.2091808,6.85714286 14.3423494,8.00841064 14.3423494,9.42857143 C14.3423494,10.8487322 13.2091808,12 11.8113465,12 Z" id="Shape"></path>
                    <path d="M11.8113465,6.34413157e-16 C5.28811997,-2.41077e-15 -1.77635684e-15,5.372583 -1.77635684e-15,12 C-3.27501157e-15,18.627417 5.28811997,24 11.8113465,24 C18.3345731,24 23.6226931,18.627417 23.6226931,12 C23.6226931,5.372583 18.3345731,5.20218789e-15 11.8113465,6.34413157e-16 Z M6.0744068,20.4685714 C6.18063212,20.1530469 6.30457335,19.8439684 6.44562054,19.5428571 C7.50808118,17.5099337 9.60085431,16.2519174 11.8661696,16.2844347 C14.1314849,16.3169519 16.1884402,17.634535 17.1939459,19.6971429 C17.3120594,19.9542857 17.4132995,20.2285714 17.5145396,20.5028571 C15.8302285,21.660013 13.8445999,22.280734 11.8113465,22.2857143 C9.76208815,22.2838571 7.7616294,21.6502232 6.0744068,20.4685714 Z M18.8644078,19.3542857 C18.8644078,19.2171429 18.7631677,19.0457143 18.6788009,18.8914286 C17.3716294,16.3165776 14.7725034,14.6848482 11.9211023,14.6489505 C9.06970134,14.6130528 6.43157588,16.1788478 5.06200566,18.72 C4.96044458,18.9179924 4.87576812,19.1244619 4.80890538,19.3371429 C1.86170155,16.4158194 0.949543742,11.9720481 2.50176255,8.09740449 C4.05398136,4.22276094 7.76132635,1.6891951 11.87884,1.6891951 C15.9963536,1.6891951 19.7036986,4.22276094 21.2559174,8.09740449 C22.8081362,11.9720481 21.8959784,16.4158194 18.9487745,19.3371429 L18.8644078,19.3542857 Z" id="Shape"></path>
                </g>
            </g>
        </g>
    </g>
</svg>