<svg width="52" height="44" viewBox="0 0 52 44" fill="none" xmlns="http://www.w3.org/2000/svg">
<path d="M26 1.5C20.2016 1.5 15.5 6.20156 15.5 12C15.5 17.7984 20.2016 22.5 26 22.5C31.7984 22.5 36.5 17.7984 36.5 12C36.5 6.20156 31.7984 1.5 26 1.5ZM26 20.7188C21.1859 20.7188 17.2812 16.8141 17.2812 12C17.2812 7.18594 21.1859 3.28125 26 3.28125C30.8141 3.28125 34.7188 7.18594 34.7188 12C34.7188 16.8141 30.8141 20.7188 26 20.7188ZM27.118 11.4562L26.5227 11.318V8.17031C27.4133 8.29219 27.9641 8.85 28.0578 9.53437C28.0695 9.62812 28.1492 9.69609 28.243 9.69609H29.2953C29.4055 9.69609 29.4922 9.6 29.4828 9.48984C29.3398 8.02969 28.1375 7.09219 26.532 6.93047V6.16406C26.532 6.06094 26.4477 5.97656 26.3445 5.97656H25.6859C25.5828 5.97656 25.4984 6.06094 25.4984 6.16406V6.9375C23.8391 7.09922 22.5406 8.01562 22.5406 9.72656C22.5406 11.3109 23.7078 12.075 24.9336 12.368L25.5125 12.5156V15.8602C24.4766 15.7219 23.8953 15.1688 23.7758 14.4234C23.7617 14.3344 23.682 14.2687 23.5906 14.2687H22.5078C22.3977 14.2687 22.3109 14.3625 22.3203 14.4727C22.4258 15.7617 23.4031 16.9477 25.4891 17.1V17.8359C25.4891 17.9391 25.5734 18.0234 25.6766 18.0234H26.3422C26.4453 18.0234 26.5297 17.9391 26.5297 17.8336L26.525 17.0906C28.3602 16.9289 29.6727 15.9469 29.6727 14.1844C29.6703 12.5578 28.6367 11.8312 27.118 11.4562ZM25.5102 11.0766C25.3789 11.0391 25.2688 11.0039 25.1586 10.9594C24.3664 10.6734 23.9984 10.2117 23.9984 9.61641C23.9984 8.76562 24.643 8.28047 25.5102 8.17031V11.0766ZM26.5227 15.8672V12.7336C26.5953 12.7547 26.6609 12.7711 26.7289 12.7852C27.8375 13.1227 28.2102 13.5914 28.2102 14.3109C28.2102 15.2273 27.5211 15.7781 26.5227 15.8672Z" fill="#8C8C8C"/>
<path d="M1.932 37V33.82H4.152C5.736 33.82 6.66 32.716 6.66 31.408C6.66 30.1 5.76 28.996 4.152 28.996H0.936V37H1.932ZM4.032 32.932H1.932V29.884H4.032C4.98 29.884 5.628 30.508 5.628 31.408C5.628 32.308 4.98 32.932 4.032 32.932ZM12.2326 37V33.016C12.2326 31.612 11.2126 31.06 9.98859 31.06C9.04059 31.06 8.29659 31.372 7.67259 32.02L8.09259 32.644C8.60859 32.092 9.17259 31.84 9.86859 31.84C10.7086 31.84 11.3326 32.284 11.3326 33.064V34.108C10.8646 33.568 10.2046 33.316 9.41259 33.316C8.42859 33.316 7.38459 33.928 7.38459 35.224C7.38459 36.484 8.42859 37.144 9.41259 37.144C10.1926 37.144 10.8526 36.868 11.3326 36.34V37H12.2326ZM9.73659 36.496C8.89659 36.496 8.30859 35.968 8.30859 35.236C8.30859 34.492 8.89659 33.964 9.73659 33.964C10.3726 33.964 10.9846 34.204 11.3326 34.684V35.776C10.9846 36.256 10.3726 36.496 9.73659 36.496ZM13.7127 39.268C13.8807 39.316 14.1807 39.352 14.3727 39.352C15.1407 39.34 15.7287 39.016 16.0767 38.176L18.9807 31.204H17.9967L16.0767 35.956L14.1447 31.204H13.1727L15.5967 37.06L15.2127 37.936C15.0087 38.416 14.7447 38.548 14.3487 38.548C14.2047 38.548 13.9887 38.512 13.8567 38.452L13.7127 39.268ZM27.8155 37V32.812C27.8155 31.648 27.2515 31.06 26.1955 31.06C25.3555 31.06 24.5755 31.612 24.2515 32.14C24.0835 31.54 23.5795 31.06 22.6915 31.06C21.8395 31.06 21.0595 31.672 20.8195 32.044V31.204H19.9195V37H20.8195V32.764C21.1315 32.296 21.7555 31.864 22.3435 31.864C23.0995 31.864 23.4115 32.332 23.4115 33.064V37H24.3115V32.752C24.6115 32.296 25.2475 31.864 25.8475 31.864C26.5915 31.864 26.9155 32.332 26.9155 33.064V37H27.8155ZM32.2269 37.144C33.1749 37.144 33.9549 36.832 34.5309 36.256L34.0989 35.668C33.6429 36.136 32.9709 36.4 32.3109 36.4C31.0629 36.4 30.2949 35.488 30.2229 34.396H34.9149V34.168C34.9149 32.428 33.8829 31.06 32.1309 31.06C30.4749 31.06 29.2749 32.416 29.2749 34.096C29.2749 35.908 30.5109 37.144 32.2269 37.144ZM34.0269 33.736H30.2229C30.2709 32.848 30.8829 31.804 32.1189 31.804C33.4389 31.804 34.0149 32.872 34.0269 33.736ZM41.1847 37V32.932C41.1847 31.672 40.5487 31.06 39.3367 31.06C38.4727 31.06 37.6807 31.564 37.2727 32.044V31.204H36.3727V37H37.2727V32.764C37.6087 32.296 38.2807 31.864 38.9887 31.864C39.7687 31.864 40.2847 32.188 40.2847 33.208V37H41.1847ZM44.446 37.144C44.974 37.144 45.298 36.988 45.526 36.772L45.262 36.1C45.142 36.232 44.902 36.34 44.65 36.34C44.254 36.34 44.062 36.028 44.062 35.596V31.996H45.238V31.204H44.062V29.62H43.162V31.204H42.202V31.996H43.162V35.788C43.162 36.652 43.594 37.144 44.446 37.144ZM48.3454 37.144C49.8454 37.144 50.6254 36.364 50.6254 35.392C50.6254 33.136 47.0374 33.976 47.0374 32.704C47.0374 32.188 47.5294 31.792 48.3214 31.792C49.0654 31.792 49.7014 32.104 50.0494 32.524L50.4694 31.9C50.0014 31.432 49.3054 31.06 48.3214 31.06C46.9414 31.06 46.1614 31.828 46.1614 32.728C46.1614 34.876 49.7494 34.012 49.7494 35.416C49.7494 35.992 49.2694 36.412 48.3814 36.412C47.5894 36.412 46.8574 36.028 46.4734 35.584L46.0054 36.232C46.5934 36.856 47.3974 37.144 48.3454 37.144Z" fill="#8C8C8C"/>
</svg>
