<?xml version="1.0" encoding="UTF-8"?>
<svg width="20px" height="20px" viewBox="0 0 20 20" version="1.1" xmlns="http://www.w3.org/2000/svg" xmlns:xlink="http://www.w3.org/1999/xlink">
    <!-- Generator: sketchtool 51.3 (57544) - http://www.bohemiancoding.com/sketch -->
    <title>7223E9CE-D3BD-47FF-9591-D97C0DF06A83</title>
    <desc>Created with sketchtool.</desc>
    <defs>
        <path d="M8,12 C5.791,12 4,10.209 4,8 C4,5.791 5.791,4 8,4 C10.209,4 12,5.791 12,8 C12,10.209 10.209,12 8,12 M17.707,16.293 L12.887,11.473 C13.585,10.492 14,9.296 14,8 C14,4.687 11.313,2 8,2 C4.687,2 2,4.687 2,8 C2,11.313 4.687,14 8,14 C9.296,14 10.492,13.585 11.473,12.887 L16.293,17.707 C16.488,17.902 16.744,18 17,18 C17.256,18 17.512,17.902 17.707,17.707 C18.098,17.316 18.098,16.684 17.707,16.293" id="path-1"></path>
    </defs>
    <g id="Asset-Artboard-Page" stroke="none" stroke-width="1" fill="none" fill-rule="evenodd">
        <g id="Polaris-icon/Minor/Mono/Search">
            <mask id="mask-2" fill="white">
                <use xlink:href="#path-1"></use>
            </mask>
            <use id="Icon" fill="#212B36" xlink:href="#path-1"></use>
        </g>
    </g>
</svg>