<?xml version="1.0" encoding="UTF-8"?>
<svg width="21px" height="20px" viewBox="0 0 21 20" version="1.1" xmlns="http://www.w3.org/2000/svg" xmlns:xlink="http://www.w3.org/1999/xlink">
    <!-- Generator: sketchtool 51.3 (57544) - http://www.bohemiancoding.com/sketch -->
    <title>6177A175-7740-400B-BC7B-2B723D2ACC6A</title>
    <desc>Created with sketchtool.</desc>
    <defs>
        <path d="M14,12 L12,12 L12,11 C12,10.449 11.551,10 11,10 L8.414,10 L9.707,11.293 L8.293,12.707 L4.586,9 L8.293,5.293 L9.707,6.707 L8.414,8 L11,8 C12.654,8 14,9.346 14,11 L14,12 Z M17,2 L3,2 C2.448,2 2,2.448 2,3 L2,17 C2,17.369 2.203,17.708 2.528,17.882 C2.853,18.055 3.247,18.036 3.555,17.832 L5.86,16.295 L7.209,17.694 C7.393,17.885 7.646,17.995 7.911,18 C8.196,18.002 8.433,17.904 8.624,17.72 L9.988,16.402 L11.293,17.707 C11.488,17.902 11.744,18 12,18 C12.256,18 12.512,17.902 12.707,17.707 L14.127,16.287 L16.445,17.832 C16.752,18.036 17.146,18.055 17.472,17.882 C17.797,17.708 18,17.369 18,17 L18,3 C18,2.448 17.552,2 17,2 L17,2 Z" id="path-1"></path>
    </defs>
    <g id="Asset-Artboard-Page" stroke="none" stroke-width="1" fill="none" fill-rule="evenodd">
        <g id="icon/Minor/Mono/Export-Polaris-icon/Minor/Mono/Refund" transform="translate(0.958115, 0.000000)">
            <mask id="mask-2" fill="white">
                <use xlink:href="#path-1"></use>
            </mask>
            <use id="Icon" fill="#442B2D" xlink:href="#path-1"></use>
        </g>
    </g>
</svg>