<?xml version="1.0" encoding="UTF-8"?>
<svg width="14px" height="14px" viewBox="0 0 14 14" version="1.1" xmlns="http://www.w3.org/2000/svg" xmlns:xlink="http://www.w3.org/1999/xlink">
    <!-- Generator: sketchtool 51.3 (57544) - http://www.bohemiancoding.com/sketch -->
    <title>6623252A-25C8-40D4-AAB8-CC902A93399C</title>
    <desc>Created with sketchtool.</desc>
    <defs></defs>
    <g id="ORDERS-(R&amp;B)" stroke="none" stroke-width="1" fill="none" fill-rule="evenodd">
        <g id="brand-pending-(3)-copy-2" transform="translate(-88.000000, -1345.000000)" fill="#442B2D" fill-rule="nonzero">
            <g id="Group" transform="translate(80.000000, 1297.000000)">
                <g id="Development-Sprint-3-–-Development-–-YouTrack-Agile-Board-47-Copy-3" transform="translate(8.000000, 48.000000)">
                    <path d="M12.23,0 L1.77,0 C0.792455993,4.4408921e-16 4.7916315e-16,0.792455993 2.57132098e-16,1.77 L2.57132098e-16,9.21 C-0.00534371901,9.68288886 0.178776176,10.1382504 0.511296518,10.474528 C0.84381686,10.8108057 1.29708095,11.0000302 1.77,11 L2,11 L2,14 L6.16,11 L12.22,11 C12.6946502,11.0027121 13.1505008,10.8146699 13.4851932,10.4780972 C13.8198856,10.1415245 14.0053711,9.68462757 14,9.21 L14,1.77 C14,0.792455993 13.207544,4.4408921e-16 12.23,0 Z M12.6,9.21 C12.5947472,9.41212962 12.4321296,9.57474724 12.23,9.58 L1.77,9.58 C1.56787038,9.57474724 1.40525276,9.41212962 1.4,9.21 L1.4,1.77 C1.40525276,1.56787038 1.56787038,1.40525276 1.77,1.4 L12.23,1.4 C12.4321296,1.40525276 12.5947472,1.56787038 12.6,1.77 L12.6,9.21 Z" id="Shape"></path>
                </g>
            </g>
        </g>
    </g>
</svg>