<?xml version="1.0" encoding="UTF-8"?>
<svg width="28px" height="28px" viewBox="0 0 28 28" version="1.1" xmlns="http://www.w3.org/2000/svg" xmlns:xlink="http://www.w3.org/1999/xlink">
    <!-- Generator: sketchtool 51.3 (57544) - http://www.bohemiancoding.com/sketch -->
    <title>8F444D6B-DC69-46E2-B388-C3194C578429</title>
    <desc>Created with sketchtool.</desc>
    <defs></defs>
    <g id="ORDERS-(R&amp;B)" stroke="none" stroke-width="1" fill="none" fill-rule="evenodd">
        <g id="brand-pending-(3)-copy-3" transform="translate(-96.000000, -434.000000)">
            <g id="Banner-critical" transform="translate(80.000000, 418.000000)">
                <g id="Banners-/-02-Desktop-banner-Banners-/-03-Resources-/-Status-/-01-Default">
                    <g id="Icon" transform="translate(16.000000, 16.000000)">
                        <circle id="Icon-BG" fill-opacity="0.54" fill="#442B2D" cx="14" cy="14" r="14"></circle>
                        <g id="Icon-Polaris-icon/Major/2-Tone/Flag" transform="translate(4.000000, 5.000000)">
                            <polygon id="Fill" fill="#FFFFFF" points="2 3 13 3 13 7 19 7 17 11 19 15 8 15 8 11 3 11"></polygon>
                            <path d="M16.1055,11.4465 L17.3815,13.9995 L9.0005,13.9995 L9.0005,11.9995 L13.0005,11.9995 C13.5525,11.9995 14.0005,11.5515 14.0005,10.9995 L14.0005,7.9995 L17.3815,7.9995 L16.1055,10.5515 C15.9645,10.8335 15.9645,11.1655 16.1055,11.4465 L16.1055,11.4465 Z M2.6915,3.9995 L12.0005,3.9995 L12.0005,9.9995 L4.0255,9.9995 L2.6915,3.9995 Z M18.1185,10.9995 L19.8945,7.4465 C20.0495,7.1365 20.0335,6.7685 19.8505,6.4735 C19.6685,6.1785 19.3465,5.9995 19.0005,5.9995 L14.0005,5.9995 L14.0005,2.9995 C14.0005,2.4465 13.5525,1.9995 13.0005,1.9995 L2.2475,1.9995 L1.9765,0.7825 C1.8565,0.2435 1.3215,-0.0925 0.7835,0.0225 C0.2445,0.1425 -0.0955,0.6765 0.0235,1.2165 L4.0235,19.2165 C4.1265,19.6815 4.5415,19.9995 4.9995,19.9995 C5.0715,19.9995 5.1435,19.9915 5.2165,19.9755 C5.7555,19.8555 6.0955,19.3215 5.9765,18.7825 L4.4695,11.9995 L7.0005,11.9995 L7.0005,14.9995 C7.0005,15.5515 7.4475,15.9995 8.0005,15.9995 L19.0005,15.9995 C19.3465,15.9995 19.6685,15.8195 19.8505,15.5245 C20.0335,15.2295 20.0495,14.8615 19.8945,14.5515 L18.1185,10.9995 Z" id="Mask" fill="#442B2D"></path>
                        </g>
                    </g>
                </g>
            </g>
        </g>
    </g>
</svg>