<?xml version="1.0" encoding="UTF-8"?>
<svg width="9px" height="9px" viewBox="0 0 9 9" version="1.1" xmlns="http://www.w3.org/2000/svg" xmlns:xlink="http://www.w3.org/1999/xlink">
    <!-- Generator: Sketch 51.3 (57544) - http://www.bohemiancoding.com/sketch -->
    <title>i</title>
    <desc>Created with Sketch.</desc>
    <defs></defs>
    <g id="LANDING-PAGE" stroke="none" stroke-width="1" fill="none" fill-rule="evenodd">
        <g id="SignUp-retailer-Copy-12" transform="translate(-578.000000, -1257.000000)" fill="#000000" fill-rule="nonzero">
            <path d="M582.5,1259.4 C582.334315,1259.4 582.2,1259.53431 582.2,1259.7 L582.2,1259.794 C582.2,1259.90118 582.25718,1260.00022 582.35,1260.05381 C582.44282,1260.1074 582.55718,1260.1074 582.65,1260.05381 C582.74282,1260.00022 582.8,1259.90118 582.8,1259.794 L582.8,1259.7 C582.8,1259.53431 582.665685,1259.4 582.5,1259.4 M582.5,1260.6 C582.334315,1260.6 582.2,1260.73431 582.2,1260.9 L582.2,1263.3 C582.2,1263.46569 582.334315,1263.6 582.5,1263.6 C582.665685,1263.6 582.8,1263.46569 582.8,1263.3 L582.8,1260.9 C582.8,1260.73431 582.665685,1260.6 582.5,1260.6 M582.5,1265.4 C580.35,1265.4 578.6,1263.65 578.6,1261.5 C578.6,1259.35 580.35,1257.6 582.5,1257.6 C584.65,1257.6 586.4,1259.35 586.4,1261.5 C586.4,1263.65 584.65,1265.4 582.5,1265.4 M582.5,1257 C580.015861,1257.00276 578.002756,1259.01586 578,1261.5 C578,1263.982 580.018,1266 582.5,1266 C584.982,1266 587,1263.982 587,1261.5 C587,1259.018 584.982,1257 582.5,1257" id="i"></path>
        </g>
    </g>
</svg>