<?xml version="1.0" encoding="UTF-8"?>
<svg width="20px" height="20px" viewBox="0 0 20 20" version="1.1" xmlns="http://www.w3.org/2000/svg" xmlns:xlink="http://www.w3.org/1999/xlink">
    <!-- Generator: sketchtool 51.3 (57544) - http://www.bohemiancoding.com/sketch -->
    <title>B6CCAB0A-6A74-42E7-951C-96998D6EA953</title>
    <desc>Created with sketchtool.</desc>
    <defs>
        <path d="M13.6364542,3.63642725 L6.36379079,3.63642725 L6.36379079,5.45465448 L5.45463627,5.45465448 L5.45463627,3.63642725 C5.45463627,3.1348309 5.86170899,2.72727273 6.36379079,2.72727273 L13.6364542,2.72727273 C14.1388178,2.72727273 14.5454542,3.1348309 14.5453633,3.63642725 L14.5453633,5.45465448 L13.6364542,5.45465448 L13.6364542,3.63642725 Z M7.27287292,13.6366367 L11.8181727,13.6366367 L11.8181727,14.5459095 L7.27287292,14.5459095 L7.27287292,13.6366367 Z M12.7270911,11.8184549 L7.27287292,11.8184549 L7.27287292,12.7276367 L12.7270911,12.7276367 L12.7270911,11.8184549 Z M3.63642727,6.36379979 L16.3637273,6.36379979 C16.8661818,6.36379979 17.2727273,6.77123617 17.2727273,7.27286346 L17.2727273,12.7276364 C17.2727273,13.23 16.8661818,13.6366364 16.3637273,13.6366364 L14.5454545,13.6366364 L14.5454545,16.3640911 C14.5454545,16.8666365 14.1389091,17.273182 13.6364545,17.273182 L6.36381818,17.273182 C5.86173636,17.273182 5.45465455,16.8666365 5.45465455,16.3640911 L5.45465455,13.6366364 L3.63642727,13.6366364 C3.13435091,13.6366364 2.72727273,13.23 2.72727273,12.7276364 L2.72727273,7.27286346 C2.72727273,6.77123617 3.13435091,6.36379979 3.63642727,6.36379979 Z M6.363818,16.3640907 L13.6364542,16.3640907 L13.6364542,10.9093181 L6.363818,10.9093181 L6.363818,16.3640907 Z M14.5454545,8.18202744 C14.5454545,8.68455471 14.952,9.09118197 15.4544545,9.09118197 C15.9569999,9.09118197 16.3637272,8.68452743 16.3637272,8.18202744 C16.3637272,7.68042745 15.9570908,7.27286382 15.4544545,7.27286382 C14.952,7.27286382 14.5454545,7.68045472 14.5454545,8.18202744 Z" id="path-1"></path>
    </defs>
    <g id="Asset-Artboard-Page" stroke="none" stroke-width="1" fill="none" fill-rule="evenodd">
        <g id="icon/Minor/Mono/Export-Icon/Basic/Print">
            <mask id="mask-2" fill="white">
                <use xlink:href="#path-1"></use>
            </mask>
            <use id="print" fill="#44566C" xlink:href="#path-1"></use>
            <g id="Color" mask="url(#mask-2)" fill="#442B2D" fill-rule="nonzero">
                <rect id="Rectangle" x="0" y="0" width="20" height="20"></rect>
            </g>
        </g>
    </g>
</svg>