<?xml version="1.0" encoding="UTF-8"?>
<svg width="21px" height="20px" viewBox="0 0 21 20" version="1.1" xmlns="http://www.w3.org/2000/svg" xmlns:xlink="http://www.w3.org/1999/xlink">
    <!-- Generator: sketchtool 51.3 (57544) - http://www.bohemiancoding.com/sketch -->
    <title>DA98646D-D653-43F0-97BB-5054AFF843EA</title>
    <desc>Created with sketchtool.</desc>
    <defs>
        <path d="M10,2 C5.589,2 2,5.589 2,10 C2,14.411 5.589,18 10,18 C14.411,18 18,14.411 18,10 C18,5.589 14.411,2 10,2 M10,16 C6.691,16 4,13.309 4,10 C4,6.691 6.691,4 10,4 C13.309,4 16,6.691 16,10 C16,13.309 13.309,16 10,16" id="path-1"></path>
    </defs>
    <g id="Asset-Artboard-Page" stroke="none" stroke-width="1" fill="none" fill-rule="evenodd">
        <g id="Polaris-icon/Minor/Mono/Export-Polaris-icon/Minor/Mono/Circle-Plus-Outline-Copy" transform="translate(0.958115, 0.000000)">
            <polygon id="Path" fill="#442B2D" points="9.59111111 10.7824176 10.7111111 14.1582418 13.2 6 6 10.6769231"></polygon>
            <mask id="mask-2" fill="white">
                <use xlink:href="#path-1"></use>
            </mask>
            <use id="Icon" fill="#442B2D" xlink:href="#path-1"></use>
        </g>
    </g>
</svg>