<svg width="60" height="44" viewBox="0 0 60 44" fill="none" xmlns="http://www.w3.org/2000/svg">
<path d="M37.5 1.5H22.5C22.0852 1.5 21.75 1.83516 21.75 2.25V21.75C21.75 22.1648 22.0852 22.5 22.5 22.5H37.5C37.9148 22.5 38.25 22.1648 38.25 21.75V2.25C38.25 1.83516 37.9148 1.5 37.5 1.5ZM31.4062 3.1875H33.6562V8.10703L32.5664 7.3125L31.4062 8.14219V3.1875ZM36.5625 20.8125H23.4375V3.1875H30V10.1461C30 10.2234 30.0234 10.3008 30.0703 10.3641C30.0988 10.4043 30.1349 10.4385 30.1767 10.4646C30.2184 10.4908 30.2649 10.5084 30.3135 10.5165C30.3622 10.5245 30.4119 10.5229 30.4598 10.5116C30.5078 10.5003 30.553 10.4797 30.593 10.4508L32.557 9.04688L34.4648 10.4391C34.5281 10.4859 34.6055 10.5117 34.6852 10.5117C34.8914 10.5117 35.0602 10.343 35.0602 10.1367V3.1875H36.5602V20.8125H36.5625Z" fill="#8C8C8C"/>
<path d="M3.672 37C6.156 37 7.776 35.284 7.776 33.004C7.776 30.736 6.156 28.996 3.672 28.996H0.936V37H3.672ZM3.672 36.112H1.932V29.884H3.672C5.652 29.884 6.744 31.276 6.744 33.004C6.744 34.72 5.616 36.112 3.672 36.112ZM11.8343 37.144C13.5983 37.144 14.7023 35.776 14.7023 34.096C14.7023 32.416 13.5983 31.06 11.8343 31.06C10.0703 31.06 8.96634 32.416 8.96634 34.096C8.96634 35.776 10.0703 37.144 11.8343 37.144ZM11.8343 36.34C10.5983 36.34 9.90234 35.284 9.90234 34.096C9.90234 32.92 10.5983 31.864 11.8343 31.864C13.0703 31.864 13.7543 32.92 13.7543 34.096C13.7543 35.284 13.0703 36.34 11.8343 36.34ZM18.7255 37.144C19.7815 37.144 20.4055 36.712 20.8495 36.136L20.2495 35.584C19.8655 36.1 19.3735 36.34 18.7735 36.34C17.5375 36.34 16.7695 35.38 16.7695 34.096C16.7695 32.812 17.5375 31.864 18.7735 31.864C19.3735 31.864 19.8655 32.092 20.2495 32.62L20.8495 32.068C20.4055 31.492 19.7815 31.06 18.7255 31.06C16.9975 31.06 15.8335 32.38 15.8335 34.096C15.8335 35.824 16.9975 37.144 18.7255 37.144ZM26.9229 37V31.204H26.0229V35.464C25.6869 35.932 25.0149 36.34 24.3069 36.34C23.5269 36.34 23.0109 36.04 23.0109 35.02V31.204H22.1109V35.296C22.1109 36.556 22.7469 37.144 23.9589 37.144C24.8229 37.144 25.5789 36.688 26.0229 36.184V37H26.9229ZM36.6163 37V32.812C36.6163 31.648 36.0523 31.06 34.9963 31.06C34.1563 31.06 33.3763 31.612 33.0523 32.14C32.8843 31.54 32.3803 31.06 31.4923 31.06C30.6403 31.06 29.8603 31.672 29.6203 32.044V31.204H28.7203V37H29.6203V32.764C29.9323 32.296 30.5563 31.864 31.1443 31.864C31.9003 31.864 32.2123 32.332 32.2123 33.064V37H33.1123V32.752C33.4123 32.296 34.0483 31.864 34.6483 31.864C35.3923 31.864 35.7163 32.332 35.7163 33.064V37H36.6163ZM41.0277 37.144C41.9757 37.144 42.7557 36.832 43.3317 36.256L42.8997 35.668C42.4437 36.136 41.7717 36.4 41.1117 36.4C39.8637 36.4 39.0957 35.488 39.0237 34.396H43.7157V34.168C43.7157 32.428 42.6837 31.06 40.9317 31.06C39.2757 31.06 38.0757 32.416 38.0757 34.096C38.0757 35.908 39.3117 37.144 41.0277 37.144ZM42.8277 33.736H39.0237C39.0717 32.848 39.6837 31.804 40.9197 31.804C42.2397 31.804 42.8157 32.872 42.8277 33.736ZM49.9854 37V32.932C49.9854 31.672 49.3494 31.06 48.1374 31.06C47.2734 31.06 46.4814 31.564 46.0734 32.044V31.204H45.1734V37H46.0734V32.764C46.4094 32.296 47.0814 31.864 47.7894 31.864C48.5694 31.864 49.0854 32.188 49.0854 33.208V37H49.9854ZM53.2468 37.144C53.7748 37.144 54.0988 36.988 54.3268 36.772L54.0628 36.1C53.9428 36.232 53.7028 36.34 53.4508 36.34C53.0548 36.34 52.8628 36.028 52.8628 35.596V31.996H54.0388V31.204H52.8628V29.62H51.9628V31.204H51.0028V31.996H51.9628V35.788C51.9628 36.652 52.3948 37.144 53.2468 37.144ZM57.1462 37.144C58.6462 37.144 59.4262 36.364 59.4262 35.392C59.4262 33.136 55.8382 33.976 55.8382 32.704C55.8382 32.188 56.3302 31.792 57.1222 31.792C57.8662 31.792 58.5022 32.104 58.8502 32.524L59.2702 31.9C58.8022 31.432 58.1062 31.06 57.1222 31.06C55.7422 31.06 54.9622 31.828 54.9622 32.728C54.9622 34.876 58.5502 34.012 58.5502 35.416C58.5502 35.992 58.0702 36.412 57.1822 36.412C56.3902 36.412 55.6582 36.028 55.2742 35.584L54.8062 36.232C55.3942 36.856 56.1982 37.144 57.1462 37.144Z" fill="#8C8C8C"/>
</svg>
