<svg width="49" height="44" viewBox="0 0 49 44" fill="none" xmlns="http://www.w3.org/2000/svg">
<path d="M34.75 3.75H15.25C14.8352 3.75 14.5 4.08516 14.5 4.5V19.5C14.5 19.9148 14.8352 20.25 15.25 20.25H34.75C35.1648 20.25 35.5 19.9148 35.5 19.5V4.5C35.5 4.08516 35.1648 3.75 34.75 3.75ZM33.8125 8.625H28.8438V5.4375H33.8125V8.625ZM33.8125 13.875H28.8438V10.125H33.8125V13.875ZM22.6562 10.125H27.3438V13.875H22.6562V10.125ZM27.3438 8.625H22.6562V5.4375H27.3438V8.625ZM16.1875 10.125H21.1562V13.875H16.1875V10.125ZM16.1875 5.4375H21.1562V8.625H16.1875V5.4375ZM16.1875 15.375H21.1562V18.5625H16.1875V15.375ZM22.6562 15.375H27.3438V18.5625H22.6562V15.375ZM33.8125 18.5625H28.8438V15.375H33.8125V18.5625Z" fill="#8C8C8C"/>
<path d="M1.344 30.376C1.68 30.376 1.956 30.112 1.956 29.776C1.956 29.44 1.68 29.164 1.344 29.164C1.02 29.164 0.744 29.44 0.744 29.776C0.744 30.112 1.02 30.376 1.344 30.376ZM1.8 37V31.204H0.9V37H1.8ZM8.40731 37V32.932C8.40731 31.672 7.77131 31.06 6.55931 31.06C5.69531 31.06 4.90331 31.564 4.49531 32.044V31.204H3.59531V37H4.49531V32.764C4.83131 32.296 5.50331 31.864 6.21131 31.864C6.99131 31.864 7.50731 32.188 7.50731 33.208V37H8.40731ZM12.7367 37L15.1487 31.204H14.1647L12.2447 35.956L10.3127 31.204H9.34069L11.7527 37H12.7367ZM18.7035 37.144C19.6515 37.144 20.4315 36.832 21.0075 36.256L20.5755 35.668C20.1195 36.136 19.4475 36.4 18.7875 36.4C17.5395 36.4 16.7715 35.488 16.6995 34.396H21.3915V34.168C21.3915 32.428 20.3595 31.06 18.6075 31.06C16.9515 31.06 15.7515 32.416 15.7515 34.096C15.7515 35.908 16.9875 37.144 18.7035 37.144ZM20.5035 33.736H16.6995C16.7475 32.848 17.3595 31.804 18.5955 31.804C19.9155 31.804 20.4915 32.872 20.5035 33.736ZM27.6612 37V32.932C27.6612 31.672 27.0252 31.06 25.8132 31.06C24.9492 31.06 24.1572 31.564 23.7492 32.044V31.204H22.8492V37H23.7492V32.764C24.0852 32.296 24.7572 31.864 25.4652 31.864C26.2452 31.864 26.7612 32.188 26.7612 33.208V37H27.6612ZM30.9226 37.144C31.4506 37.144 31.7746 36.988 32.0026 36.772L31.7386 36.1C31.6186 36.232 31.3786 36.34 31.1266 36.34C30.7306 36.34 30.5386 36.028 30.5386 35.596V31.996H31.7146V31.204H30.5386V29.62H29.6386V31.204H28.6786V31.996H29.6386V35.788C29.6386 36.652 30.0706 37.144 30.9226 37.144ZM35.5179 37.144C37.2819 37.144 38.3859 35.776 38.3859 34.096C38.3859 32.416 37.2819 31.06 35.5179 31.06C33.7539 31.06 32.6499 32.416 32.6499 34.096C32.6499 35.776 33.7539 37.144 35.5179 37.144ZM35.5179 36.34C34.2819 36.34 33.5859 35.284 33.5859 34.096C33.5859 32.92 34.2819 31.864 35.5179 31.864C36.7539 31.864 37.4379 32.92 37.4379 34.096C37.4379 35.284 36.7539 36.34 35.5179 36.34ZM40.7531 37V32.896C41.0171 32.428 41.7731 31.972 42.3251 31.972C42.4691 31.972 42.5771 31.984 42.6851 32.008V31.084C41.8931 31.084 41.2211 31.528 40.7531 32.14V31.204H39.8531V37H40.7531ZM43.4901 39.268C43.6581 39.316 43.9581 39.352 44.1501 39.352C44.9181 39.34 45.5061 39.016 45.8541 38.176L48.7581 31.204H47.7741L45.8541 35.956L43.9221 31.204H42.9501L45.3741 37.06L44.9901 37.936C44.7861 38.416 44.5221 38.548 44.1261 38.548C43.9821 38.548 43.7661 38.512 43.6341 38.452L43.4901 39.268Z" fill="#8C8C8C"/>
</svg>
