<svg width="16" height="16" viewBox="0 0 16 16" fill="none" xmlns="http://www.w3.org/2000/svg">
<path d="M14.4492 9.77683L13.4258 8.90183C13.4742 8.60496 13.4992 8.30183 13.4992 7.99871C13.4992 7.69558 13.4742 7.39246 13.4258 7.09558L14.4492 6.22058C14.5264 6.1545 14.5817 6.06648 14.6076 5.96824C14.6336 5.86999 14.629 5.76617 14.5945 5.67058L14.5805 5.62996C14.2987 4.8425 13.8768 4.11251 13.3352 3.47527L13.307 3.44246C13.2413 3.36519 13.1537 3.30965 13.0558 3.28316C12.9579 3.25666 12.8543 3.26045 12.7586 3.29402L11.4883 3.74558C11.0195 3.36121 10.4961 3.05808 9.93047 2.84558L9.68516 1.51746C9.66665 1.41752 9.61817 1.32558 9.54617 1.25386C9.47416 1.18213 9.38204 1.13401 9.28203 1.11589L9.23985 1.10808C8.42578 0.961206 7.56953 0.961206 6.75547 1.10808L6.71328 1.11589C6.61328 1.13401 6.52115 1.18213 6.44915 1.25386C6.37714 1.32558 6.32867 1.41752 6.31016 1.51746L6.06328 2.85183C5.50217 3.06438 4.97964 3.36734 4.51641 3.74871L3.23672 3.29402C3.14104 3.26018 3.03733 3.25625 2.93937 3.28277C2.84141 3.30928 2.75383 3.36498 2.68828 3.44246L2.66016 3.47527C2.11914 4.11296 1.69731 4.84283 1.41485 5.62996L1.40078 5.67058C1.33047 5.86589 1.38828 6.08464 1.5461 6.22058L2.58203 7.10496C2.5336 7.39871 2.51016 7.69871 2.51016 7.99714C2.51016 8.29714 2.5336 8.59714 2.58203 8.88933L1.5461 9.77371C1.4689 9.83979 1.41365 9.92781 1.3877 10.0261C1.36174 10.1243 1.3663 10.2281 1.40078 10.3237L1.41485 10.3643C1.69766 11.1518 2.11641 11.8784 2.66016 12.519L2.68828 12.5518C2.75399 12.6291 2.84157 12.6846 2.93948 12.7111C3.03738 12.7376 3.14101 12.7338 3.23672 12.7003L4.51641 12.2456C4.98203 12.6284 5.50235 12.9315 6.06328 13.1425L6.31016 14.4768C6.32867 14.5768 6.37714 14.6687 6.44915 14.7404C6.52115 14.8122 6.61328 14.8603 6.71328 14.8784L6.75547 14.8862C7.57701 15.0339 8.4183 15.0339 9.23985 14.8862L9.28203 14.8784C9.38204 14.8603 9.47416 14.8122 9.54617 14.7404C9.61817 14.6687 9.66665 14.5768 9.68516 14.4768L9.93047 13.1487C10.4959 12.9368 11.0223 12.6327 11.4883 12.2487L12.7586 12.7003C12.8543 12.7341 12.958 12.738 13.0559 12.7115C13.1539 12.685 13.2415 12.6293 13.307 12.5518L13.3352 12.519C13.8789 11.8768 14.2977 11.1518 14.5805 10.3643L14.5945 10.3237C14.6648 10.1315 14.607 9.91277 14.4492 9.77683ZM12.3164 7.27996C12.3555 7.51589 12.3758 7.75808 12.3758 8.00027C12.3758 8.24246 12.3555 8.48464 12.3164 8.72058L12.2133 9.34715L13.3805 10.3456C13.2035 10.7532 12.9802 11.1391 12.7148 11.4956L11.2648 10.9815L10.7742 11.3846C10.4008 11.6909 9.98516 11.9315 9.53516 12.1003L8.93985 12.3237L8.66016 13.8393C8.21886 13.8893 7.77333 13.8893 7.33203 13.8393L7.05235 12.3206L6.46172 12.094C6.01641 11.9253 5.60235 11.6846 5.23203 11.38L4.74141 10.9753L3.28203 11.494C3.01641 11.1362 2.79453 10.7503 2.61641 10.344L3.7961 9.33621L3.69453 8.71121C3.65703 8.47839 3.63672 8.23777 3.63672 8.00027C3.63672 7.76121 3.65547 7.52214 3.69453 7.28933L3.7961 6.66433L2.61641 5.65652C2.79297 5.24871 3.01641 4.86433 3.28203 4.50652L4.74141 5.02527L5.23203 4.62058C5.60235 4.31589 6.01641 4.07527 6.46172 3.90652L7.05391 3.68308L7.3336 2.16433C7.77266 2.11433 8.2211 2.11433 8.66172 2.16433L8.94141 3.67996L9.53672 3.90339C9.98516 4.07214 10.4023 4.31277 10.7758 4.61902L11.2664 5.02214L12.7164 4.50808C12.982 4.86589 13.2039 5.25183 13.382 5.65808L12.2148 6.65652L12.3164 7.27996ZM7.99922 5.09402C6.48047 5.09402 5.24922 6.32527 5.24922 7.84402C5.24922 9.36277 6.48047 10.594 7.99922 10.594C9.51797 10.594 10.7492 9.36277 10.7492 7.84402C10.7492 6.32527 9.51797 5.09402 7.99922 5.09402ZM9.23672 9.08152C9.07441 9.2443 8.88152 9.37337 8.66914 9.46133C8.45676 9.54928 8.22909 9.59438 7.99922 9.59402C7.53203 9.59402 7.09297 9.41121 6.76172 9.08152C6.59895 8.91921 6.46987 8.72632 6.38191 8.51394C6.29396 8.30156 6.24886 8.07389 6.24922 7.84402C6.24922 7.37683 6.43203 6.93777 6.76172 6.60652C7.09297 6.27527 7.53203 6.09402 7.99922 6.09402C8.46641 6.09402 8.90547 6.27527 9.23672 6.60652C9.3995 6.76883 9.52858 6.96172 9.61653 7.1741C9.70448 7.38648 9.74958 7.61415 9.74922 7.84402C9.74922 8.31121 9.56641 8.75027 9.23672 9.08152Z" fill="#595959"/>
</svg>
