<svg width="172" height="37" viewBox="0 0 172 37" fill="none" xmlns="http://www.w3.org/2000/svg">
<path d="M104.899 2.01824H104.21C102.537 2.01824 101.404 2.3136 100.814 2.95353C100.223 3.59346 99.9277 4.92255 99.9277 6.89157V11.5188C99.9277 13.6847 99.6324 15.2107 99.0909 16.0967C98.5494 16.9828 97.5649 17.6719 96.1374 18.0658C97.5157 18.4596 98.5002 19.0995 99.0909 20.0348C99.6324 20.9701 99.9277 22.496 99.9277 24.6127V29.2399C99.9277 31.209 100.223 32.538 100.765 33.178C101.355 33.8179 102.438 34.1133 104.013 34.1133C104.112 34.1133 104.26 34.1133 104.407 34.1133C104.604 34.1133 104.752 34.1133 104.85 34.1133V36.1315H103.964C101.454 36.1315 99.7308 35.6885 98.8448 34.7532C97.9587 33.8179 97.5157 31.9473 97.5157 29.0923V24.4158C97.5157 22.4468 97.1711 21.0685 96.4327 20.2809C95.6943 19.4933 94.4637 19.0995 92.7408 19.0995C92.6423 19.0995 92.4947 19.0995 92.2978 19.0995C92.1009 19.0995 91.9532 19.1487 91.8547 19.1487V17.1305C91.9532 17.1305 92.1501 17.1305 92.2978 17.1305C92.4947 17.1305 92.6423 17.1305 92.7408 17.1305C94.5129 17.1305 95.7435 16.7367 96.4327 15.8998C97.1711 15.063 97.5157 13.6847 97.5157 11.7157V7.03924C97.5157 4.18417 97.9587 2.3136 98.8448 1.37831C99.8293 0.492255 101.503 0 104.013 0H104.899V2.01824Z" fill="black"/>
<path d="M115.729 3.93843C116.221 3.2985 116.96 2.85547 117.944 2.85547C118.043 2.85547 118.239 2.90469 118.387 2.90469V4.77526C118.387 4.77526 117.895 4.67681 117.501 4.67681C116.221 4.67681 115.729 5.56287 115.729 6.44893V9.74704H113.908V2.95392H115.729V3.93843Z" fill="black"/>
<path d="M126.312 6.69466H120.012C120.061 7.43304 120.356 8.02375 120.848 8.46678C121.341 8.9098 121.981 9.15593 122.719 9.15593C123.261 9.15593 123.704 9.00826 124.147 8.76213C124.54 8.516 124.885 8.1222 125.131 7.67917H126.165C125.869 8.41755 125.426 9.00826 124.836 9.40206C124.245 9.79586 123.605 9.99276 122.817 9.99276C121.784 9.99276 120.947 9.64819 120.258 8.95903C119.569 8.26987 119.175 7.43304 119.175 6.44853C119.175 5.4148 119.519 4.57796 120.209 3.88881C120.898 3.24888 121.784 2.9043 122.867 2.9043C123.95 2.9043 124.787 3.24888 125.426 3.93803C126.066 4.62719 126.411 5.56247 126.411 6.64543V6.69466H126.312ZM125.279 5.90705C125.131 5.16867 124.787 4.57796 124.343 4.23338C123.9 3.83958 123.31 3.64268 122.571 3.64268C121.882 3.64268 121.341 3.83958 120.848 4.23338C120.356 4.62719 120.11 5.16867 120.012 5.85782H125.279V5.90705Z" fill="black"/>
<path d="M133.204 8.7129C132.909 9.10671 132.564 9.40206 132.072 9.59896C131.58 9.79586 131.087 9.94354 130.546 9.94354C129.512 9.94354 128.675 9.59896 127.986 8.95903C127.297 8.26987 126.952 7.43304 126.952 6.44853C126.952 5.46402 127.297 4.62719 127.986 3.93803C128.675 3.24888 129.561 2.9043 130.595 2.9043C131.137 2.9043 131.629 3.00275 132.072 3.19965C132.515 3.39655 132.909 3.6919 133.204 4.08571V3.05197H134.09V9.74664H133.204V8.7129ZM133.204 6.35008C133.204 5.66092 132.958 5.02099 132.416 4.47951C131.875 3.93803 131.284 3.6919 130.595 3.6919C129.857 3.6919 129.217 3.93803 128.675 4.47951C128.134 5.02099 127.888 5.66092 127.888 6.44853C127.888 7.18691 128.134 7.82684 128.675 8.3191C129.217 8.81135 129.807 9.10671 130.546 9.10671C131.235 9.10671 131.875 8.81135 132.416 8.3191C132.958 7.77762 133.204 7.13769 133.204 6.35008Z" fill="black"/>
<path d="M135.518 9.74682V0.88623H136.404V9.74682H135.518Z" fill="black"/>
<path d="M115.335 18.2627C115.532 19.1488 116.271 19.7887 117.353 19.7887C118.092 19.7887 118.781 19.4442 119.175 18.9519L120.307 19.8872C119.667 20.724 118.535 21.3147 117.157 21.3147C115.04 21.3147 113.563 19.7395 113.563 17.8197C113.563 15.8507 115.04 14.3247 117.157 14.3247C119.322 14.3247 120.553 15.8507 120.553 17.9674C120.553 18.1151 120.553 18.2627 120.553 18.3612H115.335V18.2627ZM115.384 17.1306H118.879C118.83 16.343 118.387 15.6046 117.157 15.6046C116.221 15.6538 115.532 16.2937 115.384 17.1306Z" fill="black"/>
<path d="M121.784 21.1179V12.2573H122.67V21.1179H121.784Z" fill="black"/>
<path d="M137.241 15.506C137.536 15.1122 137.881 14.8169 138.274 14.62C138.717 14.4231 139.16 14.3246 139.702 14.3246C140.637 14.3246 141.326 14.62 141.769 15.1614C142.212 15.7029 142.409 16.589 142.409 17.7704V21.167H141.572V17.6227C141.572 16.7367 141.425 16.0967 141.129 15.7522C140.834 15.3584 140.342 15.1614 139.653 15.1614C139.259 15.1614 138.914 15.2599 138.619 15.4076C138.324 15.5553 138.077 15.8014 137.881 16.0967C137.782 16.2936 137.684 16.4905 137.634 16.7367C137.585 16.9828 137.585 17.3766 137.585 17.9673V21.2162H136.748V17.475C136.748 16.6874 136.601 16.146 136.256 15.7522C135.961 15.4076 135.419 15.2107 134.779 15.2107C134.386 15.2107 134.041 15.3091 133.696 15.4568C133.401 15.6045 133.155 15.8506 132.958 16.146C132.86 16.3429 132.761 16.5398 132.712 16.7859C132.663 17.032 132.663 17.4258 132.663 18.0165V21.2654H131.777V14.4231H132.663V15.1614C132.909 14.8661 133.253 14.6692 133.598 14.4723C133.943 14.3246 134.336 14.2754 134.829 14.2754C135.37 14.2754 135.862 14.3738 136.256 14.5707C136.699 14.8661 137.044 15.1122 137.241 15.506Z" fill="black"/>
<path d="M150.679 18.0661H144.378C144.428 18.8044 144.723 19.3951 145.215 19.8382C145.707 20.2812 146.347 20.4781 147.086 20.4781C147.627 20.4781 148.07 20.3304 148.513 20.0843C148.907 19.8382 149.252 19.4444 149.498 19.0013H150.532C150.236 19.7397 149.744 20.2812 149.153 20.675C148.562 21.0688 147.923 21.2657 147.135 21.2657C146.101 21.2657 145.264 20.9211 144.575 20.232C143.886 19.5428 143.542 18.706 143.542 17.7215C143.542 16.6877 143.886 15.8509 144.575 15.211C145.264 14.5218 146.15 14.1772 147.184 14.1772C148.218 14.1772 149.104 14.5218 149.744 15.2602C150.384 15.9494 150.728 16.8354 150.728 17.9676V18.0661H150.679ZM149.695 17.3277C149.498 16.5893 149.202 15.9986 148.759 15.654C148.316 15.2602 147.726 15.0633 146.987 15.0633C146.298 15.0633 145.757 15.2602 145.264 15.654C144.772 16.0478 144.477 16.5893 144.378 17.2785H149.695V17.3277Z" fill="black"/>
<path d="M130.989 18.0661H124.688C124.737 18.8044 125.033 19.3951 125.476 19.8382C125.968 20.2812 126.608 20.4781 127.346 20.4781C127.888 20.4781 128.331 20.3304 128.774 20.0843C129.168 19.8382 129.512 19.4444 129.758 19.0013H130.792C130.497 19.7397 130.004 20.2812 129.414 20.675C128.823 21.0688 128.134 21.2657 127.395 21.2657C126.362 21.2657 125.525 20.9211 124.836 20.232C124.147 19.5428 123.802 18.706 123.802 17.7215C123.802 16.6877 124.147 15.8509 124.836 15.211C125.525 14.5218 126.411 14.1772 127.445 14.1772C128.478 14.1772 129.364 14.5218 130.004 15.2602C130.644 15.9494 130.989 16.8354 130.989 17.9676V18.0661ZM130.004 17.3277C129.857 16.5893 129.512 15.9986 129.069 15.654C128.626 15.2602 128.035 15.0633 127.297 15.0633C126.608 15.0633 126.066 15.2602 125.574 15.654C125.082 16.0478 124.836 16.5893 124.688 17.2785H130.004V17.3277Z" fill="black"/>
<path d="M151.713 14.4231H152.599V15.1614C152.894 14.8661 153.19 14.62 153.534 14.4723C153.879 14.3246 154.322 14.2754 154.765 14.2754C155.257 14.2754 155.7 14.3738 156.143 14.5707C156.537 14.7676 156.832 15.0138 157.079 15.3584C157.226 15.6045 157.374 15.8998 157.423 16.1952C157.472 16.5398 157.522 16.9828 157.522 17.6227V21.1177H156.636V17.3766C156.636 16.589 156.488 15.9983 156.143 15.6537C155.848 15.3091 155.306 15.1122 154.617 15.1122C154.223 15.1122 153.879 15.2107 153.534 15.3584C153.239 15.506 152.993 15.7522 152.796 16.0475C152.697 16.2444 152.599 16.4413 152.55 16.6874C152.501 16.9336 152.501 17.3274 152.501 17.9181V21.167H151.615V14.4231H151.713Z" fill="black"/>
<path d="M159.589 21.1179V15.3093H158.26V14.4232H159.589V12.2573H160.475V14.4232H161.804V15.3093H160.475V21.1179H159.589Z" fill="black"/>
<path d="M168.4 20.084C168.154 20.4778 167.76 20.7732 167.268 20.9701C166.776 21.2162 166.284 21.3146 165.742 21.3146C164.708 21.3146 163.872 20.9701 163.182 20.2809C162.493 19.5917 162.149 18.8041 162.149 17.8196C162.149 16.8351 162.493 15.9983 163.182 15.3091C163.872 14.62 164.758 14.2754 165.791 14.2754C166.333 14.2754 166.825 14.3738 167.268 14.5707C167.711 14.7676 168.105 15.063 168.4 15.4568V14.3738H169.286V21.0685H168.4V20.084ZM168.4 17.7704C168.4 17.0812 168.154 16.4413 167.613 15.8998C167.071 15.3584 166.481 15.1122 165.791 15.1122C165.053 15.1122 164.413 15.3584 163.872 15.8998C163.33 16.4413 163.084 17.0812 163.084 17.8688C163.084 18.6072 163.33 19.2472 163.872 19.7394C164.413 20.2317 165.004 20.527 165.742 20.527C166.431 20.527 167.071 20.2317 167.613 19.6902C168.154 19.1487 168.4 18.5088 168.4 17.7704Z" fill="black"/>
<path d="M170.714 21.1179V12.2573H171.6V21.1179H170.714Z" fill="black"/>
<path d="M121.341 29.1414C121.341 31.2089 119.716 32.6364 117.747 32.6364C117.009 32.6364 116.271 32.4395 115.68 32.1442V34.7531H113.859V25.7448H115.68V26.1386C116.271 25.7941 117.009 25.5972 117.747 25.5972C119.716 25.6464 121.341 27.0247 121.341 29.1414ZM119.519 29.1414C119.519 28.0092 118.584 27.2216 117.403 27.2216C116.714 27.2216 116.123 27.4677 115.68 27.8123V30.5197C116.123 30.8643 116.714 31.1104 117.403 31.1104C118.633 31.1104 119.519 30.2736 119.519 29.1414Z" fill="black"/>
<path d="M123.457 32.5382H122.571V25.8436H123.408V26.6312C123.654 26.3358 123.851 26.0897 124.147 25.9912C124.393 25.8436 124.688 25.7943 125.033 25.7451V26.6804C124.491 26.7296 124.048 26.8773 123.851 27.1727C123.605 27.468 123.507 27.911 123.507 28.5017V32.5382H123.457Z" fill="black"/>
<path d="M131.678 31.455C131.383 31.8488 131.038 32.1442 130.546 32.3411C130.054 32.5872 129.561 32.6856 129.02 32.6856C127.986 32.6856 127.149 32.3411 126.46 31.6519C125.771 30.9627 125.426 30.1751 125.426 29.1414C125.426 28.1569 125.771 27.3201 126.46 26.6309C127.149 25.9417 128.035 25.5972 129.069 25.5972C129.611 25.5972 130.103 25.6956 130.546 25.8925C130.989 26.0894 131.383 26.434 131.678 26.7786V25.6956H132.564V32.3903H131.678V31.455ZM131.678 29.1414C131.678 28.4522 131.432 27.8123 130.89 27.2708C130.349 26.7294 129.758 26.4832 129.069 26.4832C128.331 26.4832 127.691 26.7786 127.149 27.2708C126.608 27.8123 126.362 28.4522 126.362 29.2399C126.362 29.9782 126.608 30.6182 127.149 31.1596C127.691 31.6519 128.281 31.9473 129.02 31.9473C129.709 31.9473 130.349 31.6519 130.89 31.1596C131.432 30.5689 131.678 29.929 131.678 29.1414Z" fill="black"/>
<path d="M139.554 27.9108C139.259 27.4185 138.963 27.0739 138.57 26.8278C138.176 26.5817 137.684 26.4832 137.142 26.4832C136.404 26.4832 135.813 26.7294 135.321 27.2708C134.829 27.8123 134.582 28.4522 134.582 29.1906C134.582 29.9782 134.829 30.6182 135.321 31.1104C135.813 31.6519 136.453 31.898 137.191 31.898C137.733 31.898 138.225 31.7996 138.619 31.5042C139.062 31.2581 139.357 30.8643 139.554 30.4213H140.539C140.243 31.1596 139.85 31.7011 139.259 32.0949C138.668 32.4887 138.028 32.6856 137.241 32.6856C136.207 32.6856 135.37 32.3411 134.681 31.6519C133.992 30.9627 133.647 30.1259 133.647 29.1414C133.647 28.1569 133.992 27.3201 134.681 26.6309C135.37 25.9417 136.256 25.5972 137.241 25.5972C137.979 25.5972 138.668 25.7941 139.21 26.1879C139.8 26.5817 140.243 27.1232 140.539 27.8615H139.554V27.9108Z" fill="black"/>
<path d="M142.409 32.5383V26.6805H141.08V25.8437H142.409V23.6777H143.295V25.8437H144.624V26.6805H143.295V32.5383H142.409Z" fill="black"/>
<path d="M146.298 25.056H145.412V23.6777H146.298V25.056ZM145.363 32.5383V25.8437H146.249V32.5383H145.363Z" fill="black"/>
<path d="M153.288 27.9108C153.042 27.4185 152.697 27.0739 152.304 26.8278C151.91 26.5817 151.418 26.4832 150.876 26.4832C150.138 26.4832 149.547 26.7294 149.055 27.2708C148.562 27.8123 148.316 28.4522 148.316 29.1906C148.316 29.9782 148.562 30.6182 149.055 31.1104C149.547 31.6519 150.187 31.898 150.925 31.898C151.467 31.898 151.959 31.7996 152.353 31.5042C152.747 31.2581 153.091 30.8643 153.288 30.4213H154.273C154.026 31.1596 153.583 31.7011 152.993 32.0949C152.402 32.4887 151.713 32.6856 150.925 32.6856C149.941 32.6856 149.055 32.3411 148.366 31.6519C147.676 30.9627 147.332 30.1259 147.332 29.1414C147.332 28.1569 147.676 27.3201 148.415 26.6309C149.104 25.9417 149.99 25.5972 150.974 25.5972C151.713 25.5972 152.402 25.7941 152.993 26.1879C153.583 26.5817 153.977 27.1232 154.273 27.8615H153.288V27.9108Z" fill="black"/>
<path d="M162.444 29.4862H156.143C156.192 30.2245 156.488 30.8152 156.98 31.2583C157.472 31.7013 158.112 31.9474 158.851 31.9474C159.392 31.9474 159.835 31.7998 160.278 31.5536C160.672 31.3075 161.017 30.9137 161.263 30.4707H162.296C161.952 31.2091 161.509 31.7998 160.967 32.1936C160.377 32.5874 159.737 32.7843 158.949 32.7843C157.915 32.7843 157.079 32.4397 156.389 31.7505C155.7 31.0614 155.306 30.2245 155.306 29.24C155.306 28.2063 155.651 27.3695 156.34 26.7295C157.029 26.0404 157.915 25.6958 158.998 25.6958C160.032 25.6958 160.918 26.0404 161.558 26.7295C162.198 27.4187 162.543 28.3047 162.543 29.4369V29.4862H162.444ZM161.46 28.6986C161.312 27.9602 160.967 27.3695 160.524 27.0249C160.081 26.6803 159.491 26.4834 158.752 26.4834C158.063 26.4834 157.522 26.6803 157.029 27.0741C156.537 27.4679 156.291 28.0094 156.192 28.6986H161.46Z" fill="black"/>
<path d="M6.54699 6.79381C8.26988 4.43099 10.9281 2.80655 14.5215 2.75732C14.9645 2.75732 15.6045 2.85578 16.0967 3.05268V10.0919C16.0967 10.0919 14.3246 9.69812 12.9463 9.69812C8.26988 9.69812 6.49776 12.9962 6.49776 16.3436V28.6007H0V3.24958H6.54699V6.79381Z" fill="black"/>
<path d="M22.8405 17.7701C23.5297 21.0682 26.1879 23.431 30.0767 23.431C32.7349 23.431 35.1961 22.2004 36.6237 20.2806L40.7586 23.7264C38.3958 26.9261 34.2608 28.9443 29.3383 28.9443C21.6591 28.9443 16.3428 23.1357 16.3428 15.8995C16.3428 8.61418 21.6591 2.75635 29.3383 2.75635C37.1159 2.75635 41.6447 8.41728 41.6447 16.2934C41.6447 16.8348 41.5954 17.3271 41.5954 17.7701H22.8405ZM22.8898 13.6352H35.4423C35.1961 10.7309 33.6701 7.97425 29.3383 7.97425C25.8925 7.97425 23.4805 10.4847 22.8898 13.6352Z" fill="black"/>
<path d="M43.2693 7.0389C43.2693 4.9222 44.8937 3.24854 46.9612 3.24854C49.0287 3.24854 50.7023 4.9222 50.7023 7.0389C50.7023 9.10637 49.0287 10.78 46.9612 10.78C44.8937 10.78 43.2693 9.10637 43.2693 7.0389ZM50.7023 25.2031C50.7023 27.369 49.0287 29.0427 46.9612 29.0427C44.8937 29.0427 43.2693 27.369 43.2693 25.2031C43.2693 23.0864 44.8937 21.4127 46.9612 21.4127C49.0287 21.4127 50.7023 23.0864 50.7023 25.2031Z" fill="black"/>
<path d="M80.4345 15.8995C80.4345 23.6772 74.6259 28.9443 67.5867 28.9443C64.8793 28.9443 62.3195 28.2551 60.2028 27.0245V36.7219H53.7051V3.2486H60.2028V4.72537C62.3195 3.49473 64.9285 2.75635 67.5867 2.75635C74.6259 2.75635 80.4345 7.97425 80.4345 15.8995ZM74.0352 15.8995C74.0352 11.7646 70.7371 8.61418 66.4052 8.61418C63.9932 8.61418 61.7781 9.45101 60.2028 10.7801V20.9698C61.7288 22.2989 63.944 23.1357 66.4052 23.1357C70.7371 23.1357 74.0352 20.1822 74.0352 15.8995Z" fill="black"/>
<path d="M85.2092 29.043C83.1418 29.043 81.5173 27.3694 81.5173 25.2034C81.5173 23.0868 83.1418 21.4131 85.2092 21.4131C87.2767 21.4131 88.9504 23.0868 88.9504 25.2034C88.9504 27.3201 87.2275 29.043 85.2092 29.043Z" fill="black"/>
</svg>
