<?xml version="1.0" encoding="UTF-8"?>
<svg width="127px" height="32px" viewBox="0 0 127 32" version="1.1" xmlns="http://www.w3.org/2000/svg" xmlns:xlink="http://www.w3.org/1999/xlink">
    <!-- Generator: sketchtool 51.3 (57544) - http://www.bohemiancoding.com/sketch -->
    <title>A6AE1DFB-26E4-4613-BF7B-647F4A9749C8</title>
    <desc>Created with sketchtool.</desc>
    <defs>
        <polygon id="path-1" points="0 0.124875103 33.7976022 0.124875103 33.7976022 29.5374146 0 29.5374146"></polygon>
    </defs>
    <g id="RETAILERS" stroke="none" stroke-width="1" fill="none" fill-rule="evenodd">
        <g id="carousel-banner4" transform="translate(-80.000000, -21.000000)">
            <g id="header-logged-in">
                <g id="logo" transform="translate(80.000000, 22.000000)">
                    <g id="Group-56">
                        <path d="M42.9734423,4.7647031 C42.9734423,4.58475207 43.1167708,4.4225235 43.3136208,4.4225235 L44.9659815,4.4225235 C45.1455958,4.4225235 45.3075207,4.58475207 45.3075207,4.7647031 L45.3075207,14.8551387 L49.8849634,14.8551387 C50.0827206,14.8551387 50.2265027,15.0164584 50.2265027,15.1973183 L50.2265027,16.671917 C50.2265027,16.8514136 50.0827206,17.0140966 49.8849634,17.0140966 L43.3136208,17.0140966 C43.1167708,17.0140966 42.9734423,16.8514136 42.9734423,16.671917 L42.9734423,4.7647031 Z" id="Fill-1" fill="#231F20"></path>
                        <path d="M59.6375244,12.7144485 L57.8427422,8.75779797 L57.7883136,8.75779797 L56.0284564,12.7144485 L59.6375244,12.7144485 Z M51.8814528,16.5456787 L57.4644636,4.44033683 C57.5188922,4.33263887 57.6091529,4.24220893 57.7701707,4.24220893 L57.9506922,4.24220893 C58.1298529,4.24220893 58.2015172,4.33263887 58.2559457,4.44033683 L63.7849815,16.5456787 C63.892478,16.7801603 63.7486958,17.0128243 63.4792744,17.0128243 L61.9171744,17.0128243 C61.6477529,17.0128243 61.5225672,16.9051263 61.3973815,16.6533767 L60.5169993,14.7107235 L55.1489814,14.7107235 L54.26996,16.6533767 C54.196935,16.8333277 54.0359171,17.0128243 53.74926,17.0128243 L52.1880671,17.0128243 C51.9181921,17.0128243 51.7748635,16.7801603 51.8814528,16.5456787 Z" id="Fill-3" fill="#231F20"></path>
                        <path d="M66.3199435,4.56657539 C66.3199435,4.38662437 66.4805077,4.2430271 66.660122,4.2430271 L67.1100649,4.2430271 L74.5785721,12.1935903 L74.5958078,12.1935903 L74.5958078,4.76470328 C74.5958078,4.58520669 74.7391364,4.42297812 74.9368936,4.42297812 L76.5897079,4.42297812 C76.7688686,4.42297812 76.9298864,4.58520669 76.9298864,4.76470328 L76.9298864,16.8700447 C76.9298864,17.0499957 76.7688686,17.193593 76.5897079,17.193593 L76.1574543,17.193593 L68.6540221,8.93720393 L68.6349721,8.93720393 L68.6349721,16.6719168 C68.6349721,16.8514134 68.4916435,17.0140964 68.2947935,17.0140964 L66.660122,17.0140964 C66.4805077,17.0140964 66.3199435,16.8514134 66.3199435,16.6719168 L66.3199435,4.56657539 Z" id="Fill-5" fill="#231F20"></path>
                        <path d="M85.4629691,14.8190124 C87.7970477,14.8190124 89.5024763,13.0558559 89.5024763,10.7001334 C89.5024763,8.36167886 87.7970477,6.59943117 85.4629691,6.59943117 L83.4160012,6.59943117 L83.4160012,14.8190124 L85.4629691,14.8190124 Z M81.100519,4.76447602 C81.100519,4.58497942 81.2438476,4.42229643 81.4234619,4.42229643 L85.6784155,4.42229643 C89.1437012,4.42229643 91.9798834,7.24652769 91.9798834,10.7001331 C91.9798834,14.1896378 89.1437012,17.0134147 85.6784155,17.0134147 L81.4234619,17.0134147 C81.2438476,17.0134147 81.100519,16.8516405 81.100519,16.6716895 L81.100519,4.76447602 Z" id="Fill-7" fill="#231F20"></path>
                        <path d="M95.2528604,4.7647031 C95.2528604,4.58475207 95.4134247,4.4225235 95.593039,4.4225235 L97.2626354,4.4225235 C97.4431569,4.4225235 97.6041747,4.58475207 97.6041747,4.7647031 L97.6041747,16.671917 C97.6041747,16.8514136 97.4431569,17.0140966 97.2626354,17.0140966 L95.593039,17.0140966 C95.4134247,17.0140966 95.2528604,16.8514136 95.2528604,16.671917 L95.2528604,4.7647031 Z" id="Fill-9" fill="#231F20"></path>
                        <path d="M101.771581,4.56657539 C101.771581,4.38662437 101.932146,4.2430271 102.11176,4.2430271 L102.560796,4.2430271 L110.028849,12.1935903 L110.047446,12.1935903 L110.047446,4.76470328 C110.047446,4.58520669 110.190774,4.42297812 110.388985,4.42297812 L112.040438,4.42297812 C112.219599,4.42297812 112.381524,4.58520669 112.381524,4.76470328 L112.381524,16.8700447 C112.381524,17.0499957 112.219599,17.193593 112.040438,17.193593 L111.609546,17.193593 L104.104753,8.93720393 L104.087063,8.93720393 L104.087063,16.6719168 C104.087063,16.8514134 103.943735,17.0140964 103.746885,17.0140964 L102.11176,17.0140964 C101.932146,17.0140964 101.771581,16.8514134 101.771581,16.6719168 L101.771581,4.56657539 Z" id="Fill-11" fill="#231F20"></path>
                        <path d="M122.09902,4.24284508 C123.714642,4.24284508 125.259052,4.87221925 126.480974,5.91557166 C126.624756,6.05962336 126.641992,6.27501929 126.498209,6.41907099 L125.385145,7.58829823 C125.241817,7.73234994 125.079438,7.73234994 124.918874,7.58829823 C124.147349,6.90439345 123.194849,6.54494582 122.207424,6.54494582 C119.962699,6.54494582 118.185606,8.46942207 118.185606,10.7183555 C118.185606,12.9477487 119.962699,14.8376889 122.225113,14.8376889 C123.230681,14.8376889 124.002206,14.5314086 124.360981,14.3878113 L124.360981,12.8586821 L122.924974,12.8586821 C122.727217,12.8586821 122.583434,12.7150848 122.583434,12.5342249 L122.583434,11.1141568 C122.583434,10.9155745 122.727217,10.7719772 122.924974,10.7719772 L126.372117,10.7719772 C126.551277,10.7719772 126.695059,10.9342058 126.695059,11.1141568 L126.695059,15.7188127 C126.695059,15.86241 126.624756,15.95284 126.551277,16.0060073 C126.551277,16.0060073 124.70252,17.175689 122.09902,17.175689 C118.526692,17.175689 115.65377,14.3332807 115.65377,10.7360779 C115.65377,7.13887509 118.526692,4.24284508 122.09902,4.24284508" id="Fill-13" fill="#231F20"></path>
                        <path d="M42.9140704,20.9785627 C42.9140704,20.8994933 42.9848276,20.829058 43.0632955,20.829058 L43.5830883,20.829058 C43.6615562,20.829058 43.7323133,20.8994933 43.7323133,20.9785627 L43.7323133,26.1962333 C43.7323133,26.2753027 43.6615562,26.3461925 43.5830883,26.3461925 L43.0632955,26.3461925 C42.9848276,26.3461925 42.9140704,26.2753027 42.9140704,26.1962333 L42.9140704,20.9785627 Z" id="Fill-15" fill="#231F20"></path>
                        <path d="M47.2263101,20.8915859 C47.2263101,20.8129709 47.2966137,20.7493519 47.3755351,20.7493519 L47.5723851,20.7493519 L50.9868709,24.706911 L50.9950352,24.706911 L50.9950352,20.9783804 C50.9950352,20.9002199 51.057628,20.8279668 51.1442602,20.8279668 L51.6477245,20.8279668 C51.7275531,20.8279668 51.7983102,20.9002199 51.7983102,20.9783804 L51.7983102,26.2837545 C51.7983102,26.3623695 51.7275531,26.4250797 51.6477245,26.4250797 L51.4440709,26.4250797 L48.0291316,22.3584593 L48.0209673,22.3584593 L48.0209673,26.19696 C48.0209673,26.2755749 47.9574673,26.3464647 47.8708351,26.3464647 L47.3755351,26.3464647 C47.2966137,26.3464647 47.2263101,26.2755749 47.2263101,26.19696 L47.2263101,20.8915859 Z" id="Fill-17" fill="#231F20"></path>
                        <path d="M56.0463685,21.5692205 L54.7632149,21.5692205 C54.6761292,21.5692205 54.6139899,21.4987851 54.6139899,21.4197157 L54.6139899,20.9780178 C54.6139899,20.8994028 54.6761292,20.828513 54.7632149,20.828513 L58.1464043,20.828513 C58.23349,20.828513 58.2956293,20.8994028 58.2956293,20.9780178 L58.2956293,21.4197157 C58.2956293,21.4987851 58.23349,21.5692205 58.1464043,21.5692205 L56.8646114,21.5692205 L56.8646114,26.1965974 C56.8646114,26.2761212 56.7938543,26.347011 56.7153864,26.347011 L56.1955935,26.347011 C56.1171257,26.347011 56.0463685,26.2761212 56.0463685,26.1965974 L56.0463685,21.5692205 Z" id="Fill-19" fill="#231F20"></path>
                        <path d="M61.1140806,20.9785627 C61.1140806,20.8994933 61.1766734,20.829058 61.2633056,20.829058 L64.4110913,20.829058 C64.4963628,20.829058 64.5603163,20.8994933 64.5603163,20.9785627 L64.5603163,21.4202607 C64.5603163,21.4993301 64.4963628,21.5697654 64.4110913,21.5697654 L61.9241591,21.5697654 L61.9241591,23.1775096 L64.0241949,23.1775096 C64.1040235,23.1775096 64.1747806,23.2483994 64.1747806,23.3270144 L64.1747806,23.7691667 C64.1747806,23.854598 64.1040235,23.9195803 64.0241949,23.9195803 L61.9241591,23.9195803 L61.9241591,25.6132102 L64.4110913,25.6132102 C64.4963628,25.6132102 64.5603163,25.6850088 64.5603163,25.762715 L64.5603163,26.1962333 C64.5603163,26.2753027 64.4963628,26.3461925 64.4110913,26.3461925 L61.2633056,26.3461925 C61.1766734,26.3461925 61.1140806,26.2753027 61.1140806,26.1962333 L61.1140806,20.9785627 Z" id="Fill-21" fill="#231F20"></path>
                        <path d="M69.9414401,23.50851 C70.4530686,23.50851 70.9021044,23.0749916 70.9021044,22.5315031 C70.9021044,22.0193698 70.4530686,21.5935766 69.9414401,21.5935766 L68.5412651,21.5935766 L68.5412651,23.50851 L69.9414401,23.50851 Z M67.7153116,20.9782895 C67.7153116,20.9005834 67.7774508,20.8287848 67.8645366,20.8287848 L70.004033,20.8287848 C70.9497294,20.8287848 71.7203472,21.5772174 71.7203472,22.5151439 C71.7203472,23.2408555 71.2395615,23.8402378 70.5551223,24.115163 L71.6323544,26.1168909 C71.6876901,26.220499 71.6323544,26.3468283 71.5003651,26.3468283 L70.8857758,26.3468283 C70.823183,26.3468283 70.7760115,26.3072936 70.759683,26.2759385 L69.7137473,24.1869616 L68.5253901,24.1869616 L68.5253901,26.1959603 C68.5253901,26.2759385 68.4550866,26.3468283 68.3761651,26.3468283 L67.8645366,26.3468283 C67.7774508,26.3468283 67.7153116,26.2759385 67.7153116,26.1959603 L67.7153116,20.9782895 Z" id="Fill-23" fill="#231F20"></path>
                        <path d="M74.9147572,20.8915859 C74.9147572,20.8129709 74.9855144,20.7493519 75.0639822,20.7493519 L75.2608322,20.7493519 L78.6753178,24.706911 L78.6839357,24.706911 L78.6839357,20.9783804 C78.6839357,20.9002199 78.746075,20.8279668 78.8331607,20.8279668 L79.3361714,20.8279668 C79.4150928,20.8279668 79.4853964,20.9002199 79.4853964,20.9783804 L79.4853964,26.2837545 C79.4853964,26.3623695 79.4150928,26.4250797 79.3361714,26.4250797 L79.1316107,26.4250797 L75.7171251,22.3584593 L75.7098679,22.3584593 L75.7098679,26.19696 C75.7098679,26.2755749 75.6459144,26.3464647 75.5592822,26.3464647 L75.0639822,26.3464647 C74.9855144,26.3464647 74.9147572,26.2755749 74.9147572,26.19696 L74.9147572,20.8915859 Z" id="Fill-25" fill="#231F20"></path>
                        <path d="M85.8049219,24.4706127 L84.837454,22.310746 L84.7979933,22.310746 L83.8377826,24.4706127 L85.8049219,24.4706127 Z M82.2398504,26.141067 L84.6560253,20.8361473 C84.6791575,20.7893419 84.7508218,20.7502616 84.7902825,20.7502616 L84.8687503,20.7502616 C84.9077575,20.7502616 84.9785146,20.7893419 85.0025539,20.8361473 L87.4019467,26.141067 C87.4491181,26.2442207 87.3865253,26.3460112 87.2685967,26.3460112 L86.7723896,26.3460112 C86.6785003,26.3460112 86.6231646,26.2982969 86.5914146,26.2292248 L86.1033717,25.1472466 L83.5307147,25.1472466 C83.3724182,25.5103296 83.2077718,25.8661418 83.0508361,26.2292248 C83.027704,26.283301 82.9637504,26.3460112 82.868954,26.3460112 L82.3741076,26.3460112 C82.2557254,26.3460112 82.1931326,26.2442207 82.2398504,26.141067 Z" id="Fill-27" fill="#231F20"></path>
                        <path d="M90.6209884,21.5692205 L89.3378348,21.5692205 C89.2507491,21.5692205 89.1886098,21.4987851 89.1886098,21.4197157 L89.1886098,20.9780178 C89.1886098,20.8994028 89.2507491,20.828513 89.3378348,20.828513 L92.7210242,20.828513 C92.8076563,20.828513 92.8702492,20.8994028 92.8702492,20.9780178 L92.8702492,21.4197157 C92.8702492,21.4987851 92.8076563,21.5692205 92.7210242,21.5692205 L91.4392313,21.5692205 L91.4392313,26.1965974 C91.4392313,26.2761212 91.3680206,26.347011 91.2900063,26.347011 L90.7702134,26.347011 C90.691292,26.347011 90.6209884,26.2761212 90.6209884,26.1965974 L90.6209884,21.5692205 Z" id="Fill-29" fill="#231F20"></path>
                        <path d="M95.6873776,20.9785627 C95.6873776,20.8994933 95.7576811,20.829058 95.8366026,20.829058 L96.3563954,20.829058 C96.4344097,20.829058 96.5056204,20.8994933 96.5056204,20.9785627 L96.5056204,26.1962333 C96.5056204,26.2753027 96.4344097,26.3461925 96.3563954,26.3461925 L95.8366026,26.3461925 C95.7576811,26.3461925 95.6873776,26.2753027 95.6873776,26.1962333 L95.6873776,20.9785627 Z" id="Fill-31" fill="#231F20"></path>
                        <path d="M102.42273,25.637249 C103.547134,25.637249 104.468337,24.722498 104.468337,23.595532 C104.468337,22.4758368 103.547134,21.5379103 102.42273,21.5379103 C101.306037,21.5379103 100.384834,22.4758368 100.384834,23.595532 C100.384834,24.722498 101.306037,25.637249 102.42273,25.637249 M102.42273,20.7494885 C103.996623,20.7494885 105.255284,22.0191429 105.255284,23.595532 C105.255284,25.1723755 103.996623,26.4252163 102.42273,26.4252163 C100.850198,26.4252163 99.5978871,25.1723755 99.5978871,23.595532 C99.5978871,22.0191429 100.850198,20.7494885 102.42273,20.7494885" id="Fill-33" fill="#231F20"></path>
                        <path d="M108.347922,20.8915859 C108.347922,20.8129709 108.418225,20.7493519 108.497147,20.7493519 L108.693997,20.7493519 L112.108482,24.706911 L112.116647,24.706911 L112.116647,20.9783804 C112.116647,20.9002199 112.180147,20.8279668 112.265872,20.8279668 L112.769336,20.8279668 C112.849165,20.8279668 112.919468,20.9002199 112.919468,20.9783804 L112.919468,26.2837545 C112.919468,26.3623695 112.849165,26.4250797 112.769336,26.4250797 L112.565682,26.4250797 L109.151197,22.3584593 L109.142579,22.3584593 L109.142579,26.19696 C109.142579,26.2755749 109.079079,26.3464647 108.992447,26.3464647 L108.497147,26.3464647 C108.418225,26.3464647 108.347922,26.2755749 108.347922,26.19696 L108.347922,20.8915859 Z" id="Fill-35" fill="#231F20"></path>
                        <path d="M119.237621,24.4706127 L118.270153,22.310746 L118.229785,22.310746 L117.269575,24.4706127 L119.237621,24.4706127 Z M115.673003,26.141067 L118.088725,20.8361473 C118.11231,20.7893419 118.182614,20.7502616 118.222982,20.7502616 L118.300543,20.7502616 C118.34091,20.7502616 118.41076,20.7893419 118.434346,20.8361473 L120.833739,26.141067 C120.88091,26.2442207 120.818318,26.3460112 120.700389,26.3460112 L120.204182,26.3460112 C120.110293,26.3460112 120.055864,26.2982969 120.024568,26.2292248 L119.535164,25.1472466 L116.963868,25.1472466 C116.805571,25.5103296 116.640018,25.8661418 116.483989,26.2292248 C116.460857,26.283301 116.396903,26.3460112 116.302107,26.3460112 L115.80726,26.3460112 C115.688878,26.3460112 115.626285,26.2442207 115.673003,26.141067 Z" id="Fill-37" fill="#231F20"></path>
                        <path d="M123.5891,20.9785627 C123.5891,20.8994933 123.651693,20.829058 123.738325,20.829058 L124.257665,20.829058 C124.336132,20.829058 124.40689,20.8994933 124.40689,20.9785627 L124.40689,25.6132102 L126.538222,25.6132102 C126.624854,25.6132102 126.688807,25.6850088 126.688807,25.762715 L126.688807,26.1962333 C126.688807,26.2753027 126.624854,26.3461925 126.538222,26.3461925 L123.738325,26.3461925 C123.651693,26.3461925 123.5891,26.2753027 123.5891,26.1962333 L123.5891,20.9785627 Z" id="Fill-39" fill="#231F20"></path>
                        <g id="Group-43" transform="translate(0.000000, 1.413842)">
                            <mask id="mask-2" fill="white">
                                <use xlink:href="#path-1"></use>
                            </mask>
                            <g id="Clip-42"></g>
                            <polygon id="Fill-41" fill="#F7E8DD" mask="url(#mask-2)" points="16.9333635 0.124875103 29.7290671 7.86185999 26.3064171 13.3662708 33.7976028 22.8377835 17.0952885 29.5377779 -0.000272142862 24.156061 5.93017427 15.3525483 0.664209999 8.62710623"></polygon>
                        </g>
                        <polygon id="Stroke-44" stroke="#231F20" stroke-width="1.25" points="18.5862236 0.325002443 2.20322316 8.82723414 18.8964665 29.5488678 32.2301062 8.49914161"></polygon>
                        <polygon id="Stroke-46" stroke="#231F20" stroke-width="1.25" points="18.5862237 0.688448997 2.85046956 24.5305971 18.8964666 29.9123143 35.423703 23.3004773"></polygon>
                        <path d="M2.85006143,24.5309601 L18.7064646,14.504598" id="Stroke-48" stroke="#231F20" stroke-width="1.25"></path>
                        <path d="M2.20381278,8.82723345 L18.7065552,14.5034158" id="Stroke-50" stroke="#231F20" stroke-width="1.25"></path>
                        <path d="M35.4232936,23.3003845 L18.7064648,14.5036883" id="Stroke-52" stroke="#231F20" stroke-width="1.25"></path>
                        <path d="M32.2292433,8.49950445 L18.7060108,14.5037795" id="Stroke-54" stroke="#231F20" stroke-width="1.25"></path>
                    </g>
                </g>
            </g>
        </g>
    </g>
</svg>