<svg width="18" height="18" viewBox="0 0 18 18" fill="none" xmlns="http://www.w3.org/2000/svg">
<path d="M15.7142 8.12052C16.2574 8.12052 16.4841 7.42267 16.0429 7.10099L9.32985 2.21779C9.23398 2.14755 9.11822 2.10968 8.99938 2.10968C8.88053 2.10968 8.76478 2.14755 8.66891 2.21779L1.95582 7.10099C1.51461 7.42091 1.74137 8.12052 2.28629 8.12052H3.37438V14.6947H2.10875C2.03141 14.6947 1.96813 14.758 1.96813 14.8354V15.7494C1.96813 15.8268 2.03141 15.8901 2.10875 15.8901H15.89C15.9673 15.8901 16.0306 15.8268 16.0306 15.7494V14.8354C16.0306 14.758 15.9673 14.6947 15.89 14.6947H14.6244V8.12052H15.7142ZM8.99938 3.45704L13.7648 6.92345H4.23395L8.99938 3.45704ZM4.64 8.12052H6.69664V14.6947H4.64V8.12052ZM7.96227 8.12052H10.0189V14.6947H7.96227V8.12052ZM13.3588 14.6947H11.2845V8.12052H13.3588V14.6947Z" fill="black"/>
</svg>
