<?xml version="1.0" encoding="UTF-8"?>
<svg width="4px" height="14px" viewBox="0 0 4 14" version="1.1" xmlns="http://www.w3.org/2000/svg" xmlns:xlink="http://www.w3.org/1999/xlink">
    <!-- Generator: Sketch 51.3 (57544) - http://www.bohemiancoding.com/sketch -->
    <title>...</title>
    <desc>Created with Sketch.</desc>
    <defs></defs>
    <g id="Symbols" stroke="none" stroke-width="1" fill="none" fill-rule="evenodd">
        <g id="..." fill="#737781" fill-rule="nonzero">
            <path d="M2,5.5 C1.17157288,5.5 0.5,6.17157288 0.5,7 C0.5,7.82842712 1.17157288,8.5 2,8.5 C2.82842712,8.5 3.5,7.82842712 3.5,7 C3.5,6.17157288 2.82842712,5.5 2,5.5 Z M2,10.5 C1.17157288,10.5 0.5,11.1715729 0.5,12 C0.5,12.8284271 1.17157288,13.5 2,13.5 C2.82842712,13.5 3.5,12.8284271 3.5,12 C3.50806156,11.5970031 3.35359236,11.2077196 3.07140929,10.9198929 C2.78922622,10.6320661 2.40307754,10.4699194 2,10.47 L2,10.5 Z M2,3.53 C2.82448529,3.52983509 3.49428099,2.86426832 3.49966795,2.03980062 C3.50505491,1.21533291 2.84401347,0.541070638 2.01960073,0.530132049 C1.19518799,0.51919346 0.516489723,1.17567961 0.5,2 C0.491938441,2.40299693 0.646407641,2.79228042 0.928590711,3.08010715 C1.21077378,3.36793388 1.59692246,3.53008062 2,3.53 Z" id="Shape"></path>
        </g>
    </g>
</svg>