<svg width="29" height="44" viewBox="0 0 29 44" fill="none" xmlns="http://www.w3.org/2000/svg">
<path d="M24.1218 10.46L24.1168 10.4412L21.3128 3.7592C21.1878 3.38186 20.8155 3.1217 20.3931 3.1217H9.02723C8.60238 3.1217 8.22502 3.38655 8.10506 3.76858L5.4835 10.3826L5.47601 10.399L5.47101 10.4178C5.43852 10.5326 5.42852 10.6498 5.44602 10.7647C5.44352 10.8022 5.44102 10.8397 5.44102 10.8772V19.453C5.44168 19.8307 5.60198 20.1928 5.88679 20.4599C6.1716 20.727 6.55769 20.8773 6.96047 20.878H22.6348C23.472 20.878 24.1543 20.2381 24.1568 19.453V10.8772C24.1568 10.8467 24.1568 10.8162 24.1543 10.7905C24.1643 10.6756 24.1543 10.5655 24.1218 10.46ZM16.7294 9.45217L16.722 9.82014C16.702 10.8725 15.9272 11.5803 14.7951 11.5803C14.2428 11.5803 13.768 11.4139 13.4256 11.0975C13.0833 10.7811 12.8958 10.3405 12.8858 9.82014L12.8783 9.45217H7.73519L9.72198 4.9217H19.6984L21.7401 9.45217H16.7294ZM7.35783 11.2522H11.2889C11.8962 12.5905 13.1882 13.3803 14.7976 13.3803C15.6398 13.3803 16.4221 13.16 17.0543 12.7428C17.6091 12.3772 18.0415 11.8662 18.3214 11.2522H22.2325V19.078H7.35783V11.2522Z" fill="#8C8C8C"/>
<path d="M1.932 37V28.996H0.936V37H1.932ZM8.58309 37V32.932C8.58309 31.672 7.94709 31.06 6.73509 31.06C5.87109 31.06 5.07909 31.564 4.67109 32.044V31.204H3.77109V37H4.67109V32.764C5.00709 32.296 5.67909 31.864 6.38709 31.864C7.16709 31.864 7.68309 32.188 7.68309 33.208V37H8.58309ZM11.2805 35.428V32.8C11.5925 32.296 12.3005 31.864 13.0085 31.864C14.1845 31.864 14.8805 32.824 14.8805 34.108C14.8805 35.392 14.1845 36.34 13.0085 36.34C12.3005 36.34 11.5925 35.932 11.2805 35.428ZM11.2805 37V36.136C11.7125 36.724 12.4205 37.144 13.2365 37.144C14.7485 37.144 15.8165 35.992 15.8165 34.108C15.8165 32.26 14.7485 31.06 13.2365 31.06C12.4445 31.06 11.7485 31.444 11.2805 32.08V28.996H10.3805V37H11.2805ZM19.8148 37.144C21.5788 37.144 22.6828 35.776 22.6828 34.096C22.6828 32.416 21.5788 31.06 19.8148 31.06C18.0508 31.06 16.9468 32.416 16.9468 34.096C16.9468 35.776 18.0508 37.144 19.8148 37.144ZM19.8148 36.34C18.5788 36.34 17.8828 35.284 17.8828 34.096C17.8828 32.92 18.5788 31.864 19.8148 31.864C21.0508 31.864 21.7348 32.92 21.7348 34.096C21.7348 35.284 21.0508 36.34 19.8148 36.34ZM28.5047 37L26.2727 34.024L28.3727 31.204H27.3287L25.7207 33.412L24.1127 31.204H23.0687L25.1687 34.024L22.9487 37H23.9807L25.7207 34.624L27.4607 37H28.5047Z" fill="#8C8C8C"/>
</svg>
