<svg width="37" height="43" viewBox="0 0 37 43" fill="none" xmlns="http://www.w3.org/2000/svg">
<path d="M27.8125 18.5625H11.6875V3.9375C11.6875 3.83437 11.6031 3.75 11.5 3.75H10.1875C10.0844 3.75 10 3.83437 10 3.9375V20.0625C10 20.1656 10.0844 20.25 10.1875 20.25H27.8125C27.9156 20.25 28 20.1656 28 20.0625V18.75C28 18.6469 27.9156 18.5625 27.8125 18.5625ZM14.1672 14.9461C14.2398 15.0188 14.357 15.0188 14.432 14.9461L17.6734 11.7211L20.6641 14.7305C20.7367 14.8031 20.8562 14.8031 20.9289 14.7305L27.3836 8.27813C27.4563 8.20547 27.4563 8.08594 27.3836 8.01328L26.4555 7.08516C26.4202 7.05026 26.3726 7.03069 26.323 7.03069C26.2735 7.03069 26.2259 7.05026 26.1906 7.08516L20.8 12.4734L17.8141 9.46875C17.7788 9.43386 17.7312 9.41428 17.6816 9.41428C17.632 9.41428 17.5845 9.43386 17.5492 9.46875L13.2414 13.7508C13.2065 13.786 13.1869 13.8336 13.1869 13.8832C13.1869 13.9328 13.2065 13.9804 13.2414 14.0156L14.1672 14.9461Z" fill="#8C8C8C"/>
<path d="M4.584 36.144C6.948 36.144 8.556 34.368 8.556 32.004C8.556 29.64 6.948 27.864 4.584 27.864C2.208 27.864 0.612 29.64 0.612 32.004C0.612 34.368 2.208 36.144 4.584 36.144ZM4.584 35.256C2.784 35.256 1.644 33.864 1.644 32.004C1.644 30.132 2.784 28.752 4.584 28.752C6.372 28.752 7.524 30.132 7.524 32.004C7.524 33.864 6.372 35.256 4.584 35.256ZM10.9758 36V31.896C11.2398 31.428 11.9958 30.972 12.5478 30.972C12.6918 30.972 12.7998 30.984 12.9078 31.008V30.084C12.1158 30.084 11.4438 30.528 10.9758 31.14V30.204H10.0758V36H10.9758ZM19.1367 36V27.996H18.2367V31.08C17.7687 30.444 17.0607 30.06 16.2807 30.06C14.7567 30.06 13.7007 31.26 13.7007 33.108C13.7007 34.992 14.7687 36.144 16.2807 36.144C17.0967 36.144 17.8047 35.724 18.2367 35.136V36H19.1367ZM16.4967 35.34C15.3327 35.34 14.6367 34.392 14.6367 33.108C14.6367 31.824 15.3327 30.864 16.4967 30.864C17.2167 30.864 17.9127 31.296 18.2367 31.8V34.428C17.9127 34.932 17.2167 35.34 16.4967 35.34ZM23.5551 36.144C24.5031 36.144 25.2831 35.832 25.8591 35.256L25.4271 34.668C24.9711 35.136 24.2991 35.4 23.6391 35.4C22.3911 35.4 21.6231 34.488 21.5511 33.396H26.2431V33.168C26.2431 31.428 25.2111 30.06 23.4591 30.06C21.8031 30.06 20.6031 31.416 20.6031 33.096C20.6031 34.908 21.8391 36.144 23.5551 36.144ZM25.3551 32.736H21.5511C21.5991 31.848 22.2111 30.804 23.4471 30.804C24.7671 30.804 25.3431 31.872 25.3551 32.736ZM28.6008 36V31.896C28.8648 31.428 29.6208 30.972 30.1728 30.972C30.3168 30.972 30.4248 30.984 30.5328 31.008V30.084C29.7408 30.084 29.0688 30.528 28.6008 31.14V30.204H27.7008V36H28.6008ZM33.4977 36.144C34.9977 36.144 35.7777 35.364 35.7777 34.392C35.7777 32.136 32.1897 32.976 32.1897 31.704C32.1897 31.188 32.6817 30.792 33.4737 30.792C34.2177 30.792 34.8537 31.104 35.2017 31.524L35.6217 30.9C35.1537 30.432 34.4577 30.06 33.4737 30.06C32.0937 30.06 31.3137 30.828 31.3137 31.728C31.3137 33.876 34.9017 33.012 34.9017 34.416C34.9017 34.992 34.4217 35.412 33.5337 35.412C32.7417 35.412 32.0097 35.028 31.6257 34.584L31.1577 35.232C31.7457 35.856 32.5497 36.144 33.4977 36.144Z" fill="#8C8C8C"/>
</svg>
