<svg xmlns="http://www.w3.org/2000/svg" xmlns:xlink="http://www.w3.org/1999/xlink" width="20" height="20" viewBox="0 0 20 20">
    <defs>
        <path id="prefix__a" d="M19.962 9.725C19.94 9.648 17.666 2 10 2S.061 9.648.038 9.725c-.05.18-.05.37 0 .55C.061 10.352 2.334 18 10 18s9.94-7.648 9.962-7.725c.051-.18.051-.37 0-.55M10 16c-5.467 0-7.512-4.772-7.948-6C2.488 8.772 4.533 4 10 4c5.47 0 7.514 4.776 7.948 6-.435 1.228-2.48 6-7.948 6m0-4c-1.103 0-2-.897-2-2s.897-2 2-2 2 .897 2 2-.897 2-2 2m0-6c-2.206 0-4 1.794-4 4s1.794 4 4 4 4-1.794 4-4-1.794-4-4-4"/>
        <path id="prefix__b" d="M9.414 11.707l-1.707 1.707-5.293 5.293L1 17.293 6.293 12 8 10.293 13.293 5l5-5 1.414 1.414-5 5-5.293 5.293z"/>
        <path id="prefix__c" d="M8.414 12.707l-1.707 1.707-5.293 5.293L0 18.293 5.293 13 7 11.293 12.293 6l5-5 1.414 1.414-5 5-5.293 5.293z"/>
    </defs>
    <g fill="none" fill-rule="evenodd">
        <use fill="#929292" xlink:href="#prefix__a"/>
        <use fill="#FFF" transform="matrix(-1 0 0 1 20.707 0)" xlink:href="#prefix__b"/>
        <use fill="#929292" transform="matrix(-1 0 0 1 18.707 0)" xlink:href="#prefix__c"/>
    </g>
</svg>
