<?xml version="1.0" encoding="UTF-8"?>
<svg width="28px" height="28px" viewBox="0 0 28 28" version="1.1" xmlns="http://www.w3.org/2000/svg" xmlns:xlink="http://www.w3.org/1999/xlink">
    <!-- Generator: sketchtool 51.3 (57544) - http://www.bohemiancoding.com/sketch -->
    <title>DA98B338-A181-4222-89C0-318BD79C6805</title>
    <desc>Created with sketchtool.</desc>
    <defs></defs>
    <g id="BRAND-POV" stroke="none" stroke-width="1" fill="none" fill-rule="evenodd">
        <g id="product-detail-pre-hover-copy" transform="translate(-862.000000, -515.000000)">
            <g id="Banner-critical" transform="translate(850.000000, 507.000000)">
                <g id="Banners-/-02-Desktop-banner-Banners-/-02-Desktop-/-01-In-card-with-title">
                    <g id="Status-Banners-/-03-Resources-/-Status-/-In-card-/-05-Critical">
                        <g id="Icon" transform="translate(12.000000, 8.000000)">
                            <circle id="Icon-BG" fill="#FEAD9A" cx="14" cy="14" r="14"></circle>
                            <g id="Icon-Polaris-icon/Major/2-Tone/Circle-Disabled" transform="translate(4.000000, 4.000000)">
                                <circle id="Fill" fill="#FFFFFF" cx="10" cy="10" r="9"></circle>
                                <path d="M2,10 C2,8.154 2.635,6.457 3.688,5.103 L14.897,16.312 C13.542,17.365 11.846,18 10,18 C5.589,18 2,14.411 2,10 M16.312,14.897 L5.103,3.688 C6.458,2.635 8.154,2 10,2 C14.411,2 18,5.589 18,10 C18,11.846 17.365,13.543 16.312,14.897 M0,10 C0,15.514 4.486,20 10,20 C15.514,20 20,15.514 20,10 C20,4.486 15.514,0 10,0 C4.486,0 0,4.486 0,10" id="Mask" fill="#919EAB"></path>
                            </g>
                        </g>
                    </g>
                </g>
            </g>
        </g>
    </g>
</svg>